<svg xmlns="http://www.w3.org/2000/svg" width="396.918" height="512" viewBox="0 0 396.918 512"><defs><style>.cls-1{fill:#117db6}.cls-2{fill:#000421}.cls-3{fill:#18ffff}.cls-4{fill:#11263f}</style></defs><g id="adn" transform="translate(0 0)"><path id="Path_1" d="M386.918,288.617V223.383H360.8a131.142,131.142,0,0,0-14.414-34.754l18.477-18.48-46.129-46.129L300.262,142.5a131.2,131.2,0,0,0-34.754-14.414V101.972H200.273v26.113A131.221,131.221,0,0,0,165.516,142.5l-18.477-18.48L100.91,170.148l18.477,18.48a131.136,131.136,0,0,0-14.41,34.754H78.859v65.234h26.117a131,131,0,0,0,14.41,34.754l-18.477,18.48,46.129,46.129,18.477-18.48a131.224,131.224,0,0,0,34.758,14.414v26.113h65.234V383.914A131.2,131.2,0,0,0,300.262,369.5l18.477,18.48,46.129-46.129-18.477-18.48A131.144,131.144,0,0,0,360.8,288.617Zm0,0" class="cls-1" data-name="Path 1"/><g id="Group_1" data-name="Group 1"><path id="Path_2" d="M282.559,256a49.668,49.668,0,1,1-49.668-49.668A49.67,49.67,0,0,1,282.559,256Zm0,0" class="cls-2" data-name="Path 2"/><path id="Path_3" d="M85.2,106.441l20.383,20.383a58.066,58.066,0,0,1,0,82.023l-20.41,20.4-20.4-20.4a58.066,58.066,0,0,1,0-82.023Zm0,0" class="cls-2" data-name="Path 3"/><path id="Path_4" d="M85.2,282.766l20.383,20.383a58.066,58.066,0,0,1,0,82.023l-20.41,20.4-20.4-20.4a58.066,58.066,0,0,1,0-82.023Zm0,0" class="cls-2" data-name="Path 4"/></g><path id="Path_5" d="M154.848,36.746,64.77,126.824a58.066,58.066,0,0,0,0,82.023L132.325,276.4a95.93,95.93,0,0,1,0,135.516L42.309,501.934l-26.746-26.75,90.016-90.012a58.071,58.071,0,0,0,0-82.027L38.024,235.594a95.935,95.935,0,0,1,0-135.52L128.1,10Zm0,0" class="cls-3" data-name="Path 5"/><path id="Path_6" d="M42.25,10l90.074,90.074a95.935,95.935,0,0,1,0,135.52L64.77,303.149a58.066,58.066,0,0,0,0,82.023l90.082,90.082L128.105,502,38.023,411.918a95.93,95.93,0,0,1,0-135.516l67.555-67.555a58.066,58.066,0,0,0,0-82.023L15.5,36.746Zm0,0" class="cls-3" data-name="Path 6"/><path id="Path_7" d="M232.891,196.332A59.666,59.666,0,1,0,292.559,256a59.734,59.734,0,0,0-59.668-59.668Zm0,99.336A39.666,39.666,0,1,1,272.559,256a39.715,39.715,0,0,1-39.668,39.668Zm0,0" class="cls-4" data-name="Path 7"/><path id="Path_8" d="M386.918,213.383H368.355a141.459,141.459,0,0,0-9.551-23.027l13.137-13.137a10,10,0,0,0,0-14.141l-46.129-46.129a10.008,10.008,0,0,0-14.145,0l-13.137,13.137a141.275,141.275,0,0,0-23.023-9.551V101.973a10,10,0,0,0-10-10H200.273a10,10,0,0,0-10,10v18.563a140.887,140.887,0,0,0-26.219,11.273A105.265,105.265,0,0,0,139.395,93L126.063,79.672,161.918,43.82a10,10,0,0,0-14.145-14.145L57.7,119.754a68.084,68.084,0,0,0,0,96.164L71.031,229.25,58.426,241.856,45.094,228.524a85.273,85.273,0,0,1-17.3-24.848,10,10,0,0,0-18.184,8.332,105.322,105.322,0,0,0,21.34,30.656L44.281,256,30.949,269.328a105.952,105.952,0,0,0,0,149.66l13.336,13.336L8.492,468.113a10,10,0,1,0,14.141,14.145l90.016-90.016a68.082,68.082,0,0,0,0-96.168L99.316,282.742l12.605-12.6,13.332,13.332a85.926,85.926,0,0,1,0,121.375L35.238,494.859A10,10,0,1,0,49.383,509l35.789-35.793,35.859,35.859a10,10,0,0,0,14.145-14.141L99.316,459.07l12.6-12.605,35.859,35.859a10,10,0,0,0,14.145-14.145L126.063,432.32l13.332-13.332a105.177,105.177,0,0,0,24.656-38.8,141.439,141.439,0,0,0,26.223,11.273v18.563a10,10,0,0,0,10,10h65.234a10,10,0,0,0,10-10V391.465a141.276,141.276,0,0,0,23.023-9.551l13.137,13.137a10,10,0,0,0,14.141,0l46.129-46.129a10,10,0,0,0,0-14.145L358.8,321.644a141.118,141.118,0,0,0,9.551-23.027h18.566a10,10,0,0,0,10-10V223.383a10,10,0,0,0-10-10ZM85.172,120.563l13.336,13.332c.395.395.766.8,1.145,1.207H70.7c.375-.406.75-.812,1.145-1.207ZM59.527,155.1H110.82a48.374,48.374,0,0,1,1.238,19.547H58.289A48.305,48.305,0,0,1,59.528,155.1ZM71.84,201.778a47.968,47.968,0,0,1-5.863-7.129h38.395a47.983,47.983,0,0,1-5.863,7.125L85.172,215.11ZM45.094,404.848a85.926,85.926,0,0,1,0-121.375L65.43,263.137c.023-.023.047-.043.07-.066s.043-.047.066-.07l47.082-47.082a68.077,68.077,0,0,0,0-96.164L99.317,106.422l12.605-12.605,13.332,13.332a85.926,85.926,0,0,1,0,121.375L57.7,296.078a68.085,68.085,0,0,0,0,96.168l13.332,13.332-12.605,12.6Zm66.168-49.676H59.086a48.328,48.328,0,0,1-.512-19.547h53.2a48.328,48.328,0,0,1-.512,19.547Zm-26.09,36.262L71.84,378.1c-.945-.945-1.828-1.926-2.676-2.93h32.02c-.848,1-1.734,1.984-2.676,2.93ZM98.5,310.219a47.938,47.938,0,0,1,4.656,5.406H67.184a48.341,48.341,0,0,1,4.656-5.406l13.332-13.332Zm278.414-31.6H360.8a10,10,0,0,0-9.691,7.535A121.222,121.222,0,0,1,337.8,318.262a10,10,0,0,0,1.523,12.184l11.406,11.406-31.984,31.984L307.336,362.43a10.005,10.005,0,0,0-12.184-1.523,121.222,121.222,0,0,1-32.109,13.316,10,10,0,0,0-7.535,9.691v16.113H210.273V383.914a10,10,0,0,0-7.535-9.691,121.327,121.327,0,0,1-32.105-13.316,10.241,10.241,0,0,0-1.508-.723A105.747,105.747,0,0,0,139.4,269.328L126.066,256,139.4,242.664a105.746,105.746,0,0,0,29.73-90.848,10.2,10.2,0,0,0,1.5-.723,121.121,121.121,0,0,1,32.105-13.316,10,10,0,0,0,7.535-9.691V111.973h45.238v16.113a10,10,0,0,0,7.535,9.691,121.121,121.121,0,0,1,32.105,13.316,10,10,0,0,0,12.184-1.523l11.406-11.406,31.984,31.984L339.32,181.555a10,10,0,0,0-1.523,12.184,121.092,121.092,0,0,1,13.316,32.109,10,10,0,0,0,9.691,7.535h16.117v45.234Zm0,0" class="cls-4" data-name="Path 8"/><path id="Path_9" d="M10,177.7h.016A10.079,10.079,0,0,0,20,167.609v-.059A10.048,10.048,0,0,0,9.953,157.519,10.092,10.092,0,0,0,10,177.7Zm0,0" class="cls-4" data-name="Path 9"/><path id="Path_10" d="M44.285,79.672,30.949,93A105.269,105.269,0,0,0,9.523,123.852a10,10,0,1,0,18.2,8.293,85.175,85.175,0,0,1,17.371-25L135.168,17.07A10,10,0,0,0,121.027,2.93L85.172,38.781,49.32,2.93A10,10,0,0,0,35.176,17.07L71.031,52.926,58.426,65.531,22.574,29.676A10,10,0,1,0,8.43,43.82Zm0,0" class="cls-4" data-name="Path 10"/><path id="Path_11" d="M232.836,176.6h.055c.32,0,.637-.016.949-.043a10,10,0,0,0-.949-19.957,9.892,9.892,0,0,0-4.684,1.164,9.984,9.984,0,0,0,4.629,18.836Zm0,0" class="cls-4" data-name="Path 11"/><path id="Path_12" d="M276.7,166.754a10,10,0,0,0-8.828,17.949A78.95,78.95,0,0,1,312.289,256a10,10,0,0,0,20,0A99.406,99.406,0,0,0,276.7,166.754Zm0,0" class="cls-4" data-name="Path 12"/></g></svg>