<svg height="512pt" viewBox="-58 0 512 512" width="512pt" xmlns="http://www.w3.org/2000/svg"><path d="m386.917969 288.617188v-65.234376h-26.113281c-3.148438-12.378906-8.046876-24.054687-14.414063-34.753906l18.476563-18.480468-46.128907-46.128907-18.476562 18.480469c-10.703125-6.367188-22.375-11.265625-34.753907-14.414062v-26.113282h-65.234374v26.113282c-12.378907 3.148437-24.054688 8.046874-34.757813 14.414062l-18.476563-18.480469-46.128906 46.128907 18.476563 18.480468c-6.363281 10.699219-11.265625 22.375-14.410157 34.753906h-26.117187v65.234376h26.117187c3.144532 12.378906 8.042969 24.054687 14.410157 34.753906l-18.476563 18.480468 46.128906 46.128907 18.476563-18.480469c10.703125 6.367188 22.378906 11.265625 34.757813 14.414062v26.113282h65.234374v-26.113282c12.378907-3.148437 24.050782-8.046874 34.753907-14.414062l18.476562 18.480469 46.128907-46.128907-18.476563-18.480468c6.367187-10.699219 11.265625-22.375 14.414063-34.753906zm0 0" fill="#ff5d5d"/><g fill="#fff"><path d="m282.558594 256c0 27.429688-22.238282 49.667969-49.667969 49.667969s-49.667969-22.238281-49.667969-49.667969 22.238282-49.667969 49.667969-49.667969 49.667969 22.238281 49.667969 49.667969zm0 0"/><path d="m85.195312 106.441406 20.382813 20.382813c22.613281 22.613281 22.613281 59.40625 0 82.023437l-20.410156 20.398438-20.398438-20.398438c-22.613281-22.617187-22.613281-59.410156 0-82.023437zm0 0"/><path d="m85.195312 282.765625 20.382813 20.382813c22.613281 22.613281 22.613281 59.40625 0 82.023437l-20.410156 20.398437-20.398438-20.398437c-22.613281-22.617187-22.613281-59.410156 0-82.023437zm0 0"/></g><path d="m154.847656 36.746094-90.078125 90.078125c-22.613281 22.613281-22.613281 59.40625 0 82.023437l67.554688 67.554688c37.363281 37.359375 37.363281 98.152344 0 135.515625l-90.015625 90.015625-26.746094-26.75 90.015625-90.011719c22.613281-22.613281 22.613281-59.410156 0-82.027344l-67.554687-67.550781c-37.363282-37.363281-37.363282-98.15625 0-135.519531l90.074218-90.074219zm0 0" fill="#72d8ff"/><path d="m42.25 10 90.074219 90.074219c37.363281 37.363281 37.363281 98.15625 0 135.519531l-67.554688 67.554688c-22.613281 22.613281-22.613281 59.410156 0 82.023437l90.082031 90.082031-26.746093 26.746094-90.082031-90.082031c-37.363282-37.363281-37.363282-98.15625 0-135.515625l67.554687-67.554688c22.613281-22.617187 22.613281-59.410156 0-82.023437l-90.078125-90.078125zm0 0" fill="#72d8ff"/><path d="m232.890625 196.332031c-32.902344 0-59.667969 26.765625-59.667969 59.667969 0 32.898438 26.765625 59.664062 59.667969 59.664062 32.898437 0 59.667969-26.765624 59.667969-59.664062s-26.769532-59.667969-59.667969-59.667969zm0 99.335938c-21.871094 0-39.667969-17.796875-39.667969-39.667969s17.796875-39.664062 39.667969-39.664062 39.667969 17.792968 39.667969 39.664062-17.796875 39.667969-39.667969 39.667969zm0 0"/><path d="m386.917969 213.382812h-18.5625c-2.496094-7.933593-5.691407-15.636718-9.550781-23.027343l13.136718-13.136719c1.875-1.875 2.929688-4.417969 2.929688-7.070312 0-2.652344-1.054688-5.195313-2.929688-7.070313l-46.128906-46.128906c-3.90625-3.902344-10.238281-3.902344-14.144531 0l-13.136719 13.136719c-7.386719-3.859376-15.089844-7.054688-23.023438-9.550782v-18.5625c0-5.523437-4.476562-10-10-10h-65.234374c-5.523438 0-10 4.476563-10 10v18.5625c-9.085938 2.855469-17.863282 6.628906-26.21875 11.273438-5.109376-14.171875-13.324219-27.464844-24.660157-38.804688l-13.332031-13.332031 35.855469-35.851563c3.902343-3.90625 3.902343-10.238281 0-14.144531-3.90625-3.902343-10.234375-3.90625-14.144531 0l-90.078126 90.078125c-26.507812 26.511719-26.507812 69.648438 0 96.164063l13.335938 13.332031-12.605469 12.605469-13.332031-13.332031c-7.246094-7.246094-13.066406-15.605469-17.300781-24.847657-2.300781-5.019531-8.234375-7.226562-13.257813-4.921875-5.019531 2.300782-7.226562 8.234375-4.925781 13.253906 5.230469 11.410157 12.410156 21.722657 21.339844 30.65625l13.332031 13.332032-13.332031 13.332031c-41.257813 41.265625-41.257813 108.398437 0 149.660156l13.335937 13.335938-35.792968 35.789062c-3.90625 3.90625-3.90625 10.238281 0 14.144531 1.953124 1.953126 4.511718 2.929688 7.070312 2.929688s5.117188-.976562 7.070312-2.929688l90.015626-90.015624c26.511718-26.511719 26.511718-69.652344 0-96.167969l-13.332032-13.332031 12.605469-12.601563 13.332031 13.332031c33.460938 33.460938 33.460938 87.910156 0 121.375l-90.015625 90.011719c-3.902343 3.90625-3.902343 10.238281 0 14.144531 1.953125 1.953125 4.515625 2.929688 7.074219 2.929688s5.117188-.976563 7.070312-2.929688l35.789063-35.792968 35.859375 35.859374c1.953125 1.953126 4.511719 2.929688 7.070312 2.929688 2.558594 0 5.121094-.976562 7.074219-2.929688 3.902344-3.90625 3.902344-10.234374 0-14.140624l-35.859375-35.859376 12.601563-12.605468 35.859375 35.859375c1.953125 1.953125 4.515625 2.929687 7.074218 2.929687 2.558594 0 5.117188-.976562 7.070313-2.929687 3.902344-3.90625 3.902344-10.238281 0-14.144531l-35.859375-35.859376 13.332031-13.332031c11.335938-11.335937 19.550781-24.628906 24.65625-38.796875 8.355469 4.640625 17.136719 8.414063 26.222657 11.273438v18.5625c0 5.523437 4.476562 10 10 10h65.234374c5.519532 0 10-4.476563 10-10v-18.5625c7.933594-2.496094 15.636719-5.691406 23.023438-9.550782l13.136719 13.136719c1.875 1.875 4.417969 2.929688 7.070312 2.929688 2.652344 0 5.195313-1.054688 7.070313-2.929688l46.128906-46.128906c1.875-1.875 2.929688-4.417969 2.929688-7.070313 0-2.652343-1.054688-5.199218-2.929688-7.074218l-13.136719-13.132813c3.859375-7.390625 7.058594-15.09375 9.550781-23.027343h18.566407c5.519531 0 10-4.476563 10-10v-65.234376c0-5.523437-4.476563-10-10-10zm-301.746094-92.820312 13.335937 13.332031c.394532.394531.765626.800781 1.144532 1.207031h-28.957032c.375-.40625.75-.8125 1.144532-1.207031zm-25.644531 34.539062h51.292968c1.742188 6.375 2.164063 13.039063 1.238282 19.546876h-53.769532c-.925781-6.507813-.507812-13.171876 1.238282-19.546876zm12.3125 46.675782c-2.222656-2.222656-4.167969-4.613282-5.863282-7.128906h38.394532c-1.695313 2.515624-3.644532 4.90625-5.863282 7.125l-13.335937 13.335937zm-26.746094 203.070312c-33.460938-33.464844-33.460938-87.914062 0-121.375l20.335938-20.335937c.023437-.023438.046874-.042969.070312-.066407.023438-.019531.042969-.046874.066406-.070312l47.082032-47.082031c26.511718-26.511719 26.511718-69.652344 0-96.164063l-13.332032-13.332031 12.605469-12.605469 13.332031 13.332032c33.460938 33.460937 33.460938 87.914062 0 121.375l-67.558594 67.554687c-26.507812 26.511719-26.507812 69.652344.003907 96.167969l13.332031 13.332031-12.605469 12.601563zm66.167969-49.675781h-52.175781c-1.503907-6.414063-1.671876-13.074219-.511719-19.546875h53.199219c1.160156 6.472656.992187 13.132812-.511719 19.546875zm-26.089844 36.261719-13.332031-13.332032c-.945313-.945312-1.828125-1.925781-2.675782-2.929687h32.019532c-.847656 1.003906-1.734375 1.984375-2.675782 2.929687zm13.332031-81.214844c1.710938 1.710938 3.261719 3.519531 4.65625 5.40625h-35.976562c1.398437-1.886719 2.945312-3.695312 4.65625-5.40625l13.332031-13.332031zm278.414063-31.601562h-16.113281c-4.574219 0-8.566407 3.105468-9.691407 7.535156-2.863281 11.269531-7.347656 22.070312-13.316406 32.109375-2.335937 3.929687-1.710937 8.949219 1.523437 12.183593l11.40625 11.40625-31.984374 31.984376-11.40625-11.40625c-3.238282-3.234376-8.253907-3.859376-12.183594-1.523438-10.039063 5.972656-20.839844 10.449219-32.109375 13.316406-4.433594 1.125-7.535157 5.117188-7.535157 9.691406v16.113282h-45.234374v-16.113282c0-4.574218-3.101563-8.566406-7.535157-9.691406-11.265625-2.867187-22.070312-7.347656-32.105469-13.316406-.488281-.289062-.996093-.523438-1.507812-.722656 4.886719-32.15625-5.019531-66.144532-29.726562-90.855469l-13.332032-13.332031 13.332032-13.332032c24.707031-24.707031 34.613281-58.695312 29.730468-90.847656.511719-.199218 1.015625-.433594 1.503906-.722656 10.039063-5.972656 20.839844-10.453125 32.105469-13.316406 4.433594-1.125 7.535157-5.117188 7.535157-9.691406v-16.113282h45.238281v16.113282c0 4.574218 3.101562 8.566406 7.535156 9.691406 11.265625 2.863281 22.066406 7.34375 32.105469 13.316406 3.929687 2.339844 8.949218 1.710938 12.183594-1.523438l11.40625-11.40625 31.984374 31.984376-11.40625 11.40625c-3.234374 3.234374-3.859374 8.253906-1.523437 12.183593 5.972656 10.039063 10.453125 20.839844 13.316406 32.109375 1.128907 4.433594 5.117188 7.535156 9.691407 7.535156h16.117187v45.234376zm0 0"/><path d="m10 177.703125h.015625c5.519531-.011719 9.984375-4.574219 9.984375-10.09375 0-.019531 0-.039063 0-.058594-.03125-5.519531-4.519531-10.089843-10.046875-10.03125-5.515625.027344-9.96875 4.605469-9.953125 10.121094.0195312 5.511719 4.492188 10.0625 10 10.0625zm0 0"/><path d="m44.285156 79.671875-13.335937 13.332031c-8.980469 8.984375-16.191407 19.363282-21.425781 30.847656-2.289063 5.023438-.074219 10.953126 4.953124 13.246094 1.34375.613282 2.753907.902344 4.140626.902344 3.796874 0 7.429687-2.175781 9.105468-5.855469 4.238282-9.300781 10.082032-17.710937 17.371094-24.996093l90.074219-90.078126c3.90625-3.90625 3.90625-10.234374 0-14.140624-3.90625-3.90625-10.234375-3.90625-14.140625 0l-35.855469 35.851562-35.851563-35.851562c-3.90625-3.90625-10.238281-3.90625-14.144531 0-3.90625 3.902343-3.90625 10.234374 0 14.140624l35.855469 35.855469-12.605469 12.605469-35.851562-35.855469c-3.90625-3.902343-10.238281-3.902343-14.144531 0-3.90625 3.90625-3.90625 10.238281 0 14.144531zm0 0"/><path d="m232.835938 176.601562h.054687c.320313 0 .636719-.015624.949219-.042968 5.105468-.472656 9.121094-4.777344 9.101562-9.996094-.019531-5.507812-4.542968-9.960938-10.050781-9.960938-1.695313 0-3.289063.417969-4.683594 1.164063-3.1875 1.679687-5.371093 5.015625-5.367187 8.847656.007812 5.496094 4.5 9.957031 9.996094 9.988281zm0 0"/><path d="m276.703125 166.753906c-4.960937-2.4375-10.949219-.394531-13.386719 4.5625-2.4375 4.953125-.398437 10.949219 4.558594 13.386719 27.398438 13.472656 44.414062 40.789063 44.414062 71.296875 0 5.523438 4.476563 10 10 10 5.523438 0 10-4.476562 10-10 0-18.929688-5.34375-37.34375-15.453124-53.25-9.832032-15.472656-23.710938-27.917969-40.132813-35.996094zm0 0"/></svg>