<svg height="496pt" viewBox="0 0 496 496" width="496pt" xmlns="http://www.w3.org/2000/svg"><path d="m224 56c0 8.835938-7.164062 16-16 16s-16-7.164062-16-16 7.164062-16 16-16 16 7.164062 16 16zm0 0" fill="#ffeaa7"/><path d="m75.28125 460.71875c2.957031 2.882812 4.71875 6.882812 4.71875 11.28125 0 8.800781-7.199219 16-16 16s-16-7.199219-16-16 7.199219-16 16-16c4.398438 0 8.398438 1.761719 11.28125 4.71875zm0 0" fill="#ef7385"/><path d="m484.398438 450.078125c2.402343 3.84375 3.601562 8.320313 3.601562 12.882813 0 6.960937-2.800781 13.199218-7.359375 17.679687-4.480469 4.558594-10.71875 7.359375-17.679687 7.359375h-.320313c-9.039063 0-17.359375-4.878906-21.839844-12.800781l-47.28125-84.078125 38.480469-23.121094 2.320312-1.441406zm0 0" fill="#969faa"/><path d="m417.121094 337.921875 17.199218 28.636719-2.320312 1.441406-38.480469 23.121094-16.160156-28.640625c15.121094-5.121094 28.640625-13.601563 39.761719-24.558594zm0 0" fill="#ccd1d9"/><path d="m391.519531 171.441406c33.519531 17.277344 56.480469 52.238282 56.480469 92.558594 0 28.878906-11.839844 55.121094-30.878906 73.921875-11.121094 10.957031-24.640625 19.4375-39.761719 24.558594-10.480469 3.597656-21.679687 5.519531-33.359375 5.519531-52.640625 0-96.160156-39.121094-103.039062-89.921875-.640626-4.636719-.960938-9.277344-.960938-14.078125 0-37.039062 19.359375-69.601562 48.558594-87.921875 16-10.15625 35.042968-16.078125 55.441406-16.078125 17.121094 0 33.28125 4.160156 47.519531 11.441406zm0 0" fill="#e6e9ed"/><path d="m374.960938 199.039062c24.238281 11.519532 41.039062 36.320313 41.039062 64.960938 0 16.960938-5.921875 32.558594-15.761719 44.878906l-11.359375 11.359375c-12.320312 9.839844-27.917968 15.761719-44.878906 15.761719-39.761719 0-72-32.238281-72-72 0-16.960938 5.921875-32.558594 15.761719-44.878906l11.359375-11.359375c12.320312-9.839844 27.917968-15.761719 44.878906-15.761719 11.039062 0 21.601562 2.480469 30.960938 7.039062zm0 0" fill="#69d6f4"/><path d="m309.199219 89.839844c-8-5.761719-13.199219-15.199219-13.199219-25.839844 0-17.679688 14.320312-32 32-32s32 14.320312 32 32-14.320312 32-32 32c-7.039062 0-13.519531-2.238281-18.800781-6.160156zm0 0" fill="#ffeaa7"/><path d="m165.761719 165.761719c13.039062-18.082031 34.238281-29.761719 58.238281-29.761719 15.601562 0 30.078125 4.960938 41.839844 13.441406 9.519531 6.878906 17.359375 16 22.640625 26.558594l.078125.078125c-29.199219 18.320313-48.558594 50.882813-48.558594 87.921875 0 4.800781.320312 9.441406.960938 14.078125l-.960938.160156c-5.121094 1.121094-10.480469 1.761719-16 1.761719-9.28125 0-18.160156-1.761719-26.238281-4.960938-26.800781-10.480468-45.761719-36.558593-45.761719-67.039062 0-15.761719 5.121094-30.398438 13.761719-42.238281zm0 0" fill="#fcd770"/><path d="m172.160156 340.480469c16.398438 7.597656 27.839844 24.238281 27.839844 43.519531 0 26.480469-21.519531 48-48 48-13.28125 0-25.28125-5.359375-33.921875-14.078125-8.71875-8.640625-14.078125-20.640625-14.078125-33.921875 0-6.160156 1.199219-12.078125 3.359375-17.519531 6.960937-17.839844 24.320313-30.480469 44.640625-30.480469 7.199219 0 14.078125 1.601562 20.160156 4.480469zm0 0" fill="#ef7385"/><path d="m80 208c0 8.835938-7.164062 16-16 16s-16-7.164062-16-16 7.164062-16 16-16 16 7.164062 16 16zm0 0" fill="#ffeaa7"/><path d="m72 40c0 17.671875-14.328125 32-32 32s-32-14.328125-32-32 14.328125-32 32-32 32 14.328125 32 32zm0 0" fill="#ffeaa7"/><path d="m56 328c0 8.835938-7.164062 16-16 16s-16-7.164062-16-16 7.164062-16 16-16 16 7.164062 16 16zm0 0" fill="#ef7385"/><path d="m176 208h16c0-17.648438 14.351562-32 32-32v-16c-26.472656 0-48 21.527344-48 48zm0 0"/><path d="m152 360v16c4.40625 0 8 3.59375 8 8h16c0-13.230469-10.769531-24-24-24zm0 0"/><path d="m496 152v-16h-16v-32h-16v32h-16v-56h-16v56h-16v-80h-16v85.785156l-11.710938 19.519532c-13.96875-5.984376-29.082031-9.304688-44.289062-9.304688-18.449219 0-36.472656 4.542969-52.566406 13.160156-4.058594-6.335937-9-12.082031-14.671875-17.097656l34.710937-47.742188c5.136719 2.359376 10.703125 3.679688 16.527344 3.679688 22.054688 0 40-17.945312 40-40s-17.945312-40-40-40-40 17.945312-40 40c0 10.078125 3.878906 19.6875 10.527344 26.9375l-34.734375 47.71875c-12.03125-6.960938-25.625-10.65625-39.792969-10.65625-2.6875 0-5.351562.207031-8 .480469v-49.953125c9.289062-3.3125 16-12.113282 16-22.527344 0-13.230469-10.769531-24-24-24s-24 10.769531-24 24c0 10.414062 6.710938 19.214844 16 22.527344v53.320312c-13.265625 4.191406-25.351562 11.6875-34.824219 22.015625l-91.839843-91.839843c4.191406-6.328126 6.664062-13.886719 6.664062-22.023438 0-22.054688-17.945312-40-40-40s-40 17.945312-40 40 17.945312 40 40 40c8.136719 0 15.695312-2.472656 22.023438-6.664062l93.464843 93.464843c-6.144531 10.136719-9.871093 21.40625-11.046875 33.199219h-57.921875c-3.3125-9.289062-12.113281-16-22.527343-16-13.230469 0-24 10.769531-24 24s10.769531 24 24 24c10.414062 0 19.214843-6.710938 22.527343-16h57.914063c2.671875 27.175781 18.804687 50.808594 43.125 63.175781l-19.992188 51.128907c-5.03125-1.472657-10.277344-2.304688-15.566406-2.304688-20.113281 0-38.113281 10.503906-48.046875 27.328125l-40.386719-23.082031c.25-1.375.433594-2.789063.433594-4.246094 0-13.230469-10.769531-24-24-24s-24 10.769531-24 24 10.769531 24 24 24c5.96875 0 11.367188-2.273438 15.566406-5.886719l42.226563 24.125c-1.152344 4.488281-1.792969 9.089844-1.792969 13.761719 0 12.304688 3.976562 23.9375 11.191406 33.496094l-32.902344 32.902344c-3.167968-1.519532-6.640624-2.398438-10.289062-2.398438-13.230469 0-24 10.769531-24 24s10.769531 24 24 24 24-10.769531 24-24c0-3.664062-.886719-7.144531-2.390625-10.296875l32.894531-32.894531c9.59375 7.222656 21.199219 11.191406 33.496094 11.191406 25.191406 0 46.535156-16.71875 53.550781-39.640625l34.929688 4.367187c2.199219 10.976563 11.902343 19.273438 23.519531 19.273438 13.230469 0 24-10.769531 24-24s-10.769531-24-24-24c-9.207031 0-17.128906 5.273438-21.152344 12.894531l-34.878906-4.359375c.007812-.183594.03125-.351562.03125-.535156 0-19.152344-9.945312-36.894531-25.839844-47.097656l20.289063-51.878906c6.964843 1.960937 14.175781 2.976562 21.550781 2.976562 3.480469 0 6.992188-.304688 10.511719-.769531 10.824219 51.128906 56.472656 88.769531 109.488281 88.769531 10.089844 0 19.992188-1.40625 29.542969-4.046875l60.289062 107.183594c5.886719 10.398437 16.929688 16.863281 29.128907 16.863281 8.894531 0 17.199218-3.464844 23.285156-9.65625 6.289062-6.175781 9.753906-14.488281 9.753906-23.382812 0-6.160157-1.664062-12.082032-4.742188-17l-64.210937-107.039063c18.648437-20.585937 28.953125-46.898437 28.953125-74.921875 0-39.289062-20.265625-75.121094-53.390625-95.464844l9.917969-16.535156zm-288-104c4.40625 0 8 3.59375 8 8s-3.59375 8-8 8-8-3.59375-8-8 3.59375-8 8-8zm56 344c4.40625 0 8 3.59375 8 8s-3.59375 8-8 8-8-3.59375-8-8 3.59375-8 8-8zm64-352c13.230469 0 24 10.769531 24 24s-10.769531 24-24 24c-5.144531 0-9.992188-1.585938-14.128906-4.65625-6.183594-4.449219-9.871094-11.679688-9.871094-19.34375 0-13.230469 10.769531-24 24-24zm-288 24c-13.230469 0-24-10.769531-24-24s10.769531-24 24-24 24 10.769531 24 24-10.769531 24-24 24zm24 152c-4.40625 0-8-3.59375-8-8s3.59375-8 8-8 8 3.59375 8 8-3.59375 8-8 8zm-24 120c-4.40625 0-8-3.59375-8-8s3.59375-8 8-8 8 3.59375 8 8-3.59375 8-8 8zm24 144c-4.40625 0-8-3.59375-8-8s3.59375-8 8-8c2.136719 0 4.105469.816406 5.695312 2.449219 1.488282 1.445312 2.304688 3.414062 2.304688 5.550781 0 4.40625-3.59375 8-8 8zm128-96c0 22.054688-17.945312 40-40 40-10.726562 0-20.761719-4.160156-28.289062-11.761719-7.550782-7.476562-11.710938-17.511719-11.710938-28.238281 0-5 .945312-9.894531 2.816406-14.617188 6.015625-15.414062 20.609375-25.382812 37.183594-25.382812 5.824219 0 11.609375 1.289062 16.734375 3.710938l.058594.023437c14.09375 6.539063 23.207031 20.769531 23.207031 36.265625zm8.671875-116.40625c-24.703125-9.664062-40.671875-33.058594-40.671875-59.59375 0-13.59375 4.222656-26.566406 12.246094-37.558594 11.945312-16.5625 31.289062-26.441406 51.753906-26.441406 13.488281 0 26.335938 4.128906 37.152344 11.929688 6.671875 4.824218 12.34375 10.886718 16.742187 17.726562-28.871093 20.984375-45.894531 54.199219-45.894531 90.34375 0 2.472656.089844 4.894531.246094 7.296875-10.925782 1.390625-21.679688.207031-31.574219-3.703125zm214.535156 82.644531 8.160157 13.617188-26.953126 16.191406-7.636718-13.566406c9.488281-4.160157 18.398437-9.625 26.429687-16.242188zm64.792969 112.722657c0 4.574218-1.769531 8.824218-5.0625 12.070312-3.152344 3.199219-7.402344 4.96875-12.296875 4.96875-6.128906 0-11.832031-3.34375-14.863281-8.71875l-43.511719-77.304688 27.335937-16.402343 46.015626 76.746093c1.558593 2.496094 2.382812 5.488282 2.382812 8.640626zm-40-198.960938c0 25.847656-10.121094 50.078125-28.496094 68.222656-10.367187 10.21875-23.0625 18.058594-36.742187 22.6875-9.832031 3.378906-20.175781 5.089844-30.761719 5.089844-47.816406 0-88.703125-35.679688-95.113281-83.015625-.597657-4.320313-.886719-8.558594-.886719-12.984375 0-33.207031 16.753906-63.535156 44.847656-81.167969 15.289063-9.703125 32.976563-14.832031 51.152344-14.832031 12.511719 0 24.566406 2.464844 36.007812 7.105469l-8.351562 13.910156c-8.746094-3.253906-18.160156-5.015625-27.65625-5.015625-18.023438 0-35.734375 6.214844-49.871094 17.511719l9.984375 12.496093c11.480469-9.167968 25.269531-14.007812 39.886719-14.007812 6.566406 0 13.070312 1.089844 19.238281 3.039062l-10.101562 16.839844 13.726562 8.226563 10.960938-18.273438c18.496093 11.566407 30.175781 32.0625 30.175781 54.167969 0 14.617188-4.839844 28.40625-14.007812 39.886719l12.496093 9.984375c11.296875-14.136719 17.511719-31.847656 17.511719-49.871094 0-27.742188-14.726562-53.449219-37.960938-67.855469l8.335938-13.886719c28.3125 17.460938 45.625 48.125 45.625 81.742188zm0 0"/><path d="m344 328c-35.289062 0-64-28.710938-64-64 0-14.617188 4.839844-28.40625 14.007812-39.886719l-12.496093-9.984375c-11.296875 14.136719-17.511719 31.847656-17.511719 49.871094 0 44.113281 35.886719 80 80 80 18.023438 0 35.734375-6.214844 49.871094-17.511719l-9.984375-12.496093c-11.480469 9.167968-25.269531 14.007812-39.886719 14.007812zm0 0"/></svg>