<svg xmlns="http://www.w3.org/2000/svg" width="496" height="496" viewBox="0 0 496 496"><defs><style>.cls-1{fill:#699ce6}.cls-2{fill:#117db6}.cls-3{fill:#178c7a}.cls-4{fill:#5789d6}.cls-5{fill:#18ffff}.cls-6{fill:#11263f}</style></defs><g id="atom" transform="translate(0 0)"><path id="Path_13" d="M224,56a16,16,0,1,1-16-16A16,16,0,0,1,224,56Zm0,0" class="cls-1" data-name="Path 13" transform="translate(-8)"/><path id="Path_14" d="M75.281,460.719A15.663,15.663,0,0,1,80,472a16,16,0,1,1-16-16,15.664,15.664,0,0,1,11.281,4.719Zm0,0" class="cls-2" data-name="Path 14"/><path id="Path_15" d="M484.4,450.078a24.26,24.26,0,0,1,3.6,12.883A25.127,25.127,0,0,1,462.961,488h-.32a25.086,25.086,0,0,1-21.84-12.8l-47.281-84.078L432,368l2.32-1.441Zm0,0" class="cls-3" data-name="Path 15"/><path id="Path_16" d="M417.121,337.922l17.2,28.637L432,368l-38.48,23.121-16.16-28.641a104.339,104.339,0,0,0,39.762-24.559Zm0,0" class="cls-3" data-name="Path 16"/><path id="Path_17" d="M391.52,171.441A104.022,104.022,0,0,1,377.36,362.48,102.444,102.444,0,0,1,344,368a104.008,104.008,0,0,1-103.039-89.922A102.18,102.18,0,0,1,240,264a104.078,104.078,0,0,1,151.52-92.559Zm0,0" class="cls-4" data-name="Path 17"/><path id="Path_18" d="M374.961,199.039a71.876,71.876,0,0,1,25.277,109.84l-11.359,11.359A71.941,71.941,0,0,1,287.762,219.121l11.359-11.359A71.7,71.7,0,0,1,344,192a70.642,70.642,0,0,1,30.961,7.039Zm0,0" class="cls-5" data-name="Path 18"/><path id="Path_19" d="M309.2,89.84A31.943,31.943,0,1,1,328,96a31.318,31.318,0,0,1-18.8-6.16Zm0,0" class="cls-1" data-name="Path 19"/><path id="Path_20" d="M165.762,165.762a71.853,71.853,0,0,1,100.078-16.32A73.387,73.387,0,0,1,288.481,176l.078.078A103.626,103.626,0,0,0,240,264a102.18,102.18,0,0,0,.961,14.078l-.961.16A74.791,74.791,0,0,1,224,280a71.2,71.2,0,0,1-26.238-4.961,71.894,71.894,0,0,1-32-109.277Zm0,0" class="cls-1" data-name="Path 20" transform="translate(-8)"/><path id="Path_21" d="M172.16,340.48A47.96,47.96,0,1,1,104,384a47.416,47.416,0,0,1,3.359-17.52A47.909,47.909,0,0,1,152,336a47.131,47.131,0,0,1,20.16,4.48Zm0,0" class="cls-2" data-name="Path 21"/><path id="Path_22" d="M80,208a16,16,0,1,1-16-16A16,16,0,0,1,80,208Zm0,0" class="cls-1" data-name="Path 22" transform="translate(-8)"/><path id="Path_23" d="M72,40A32,32,0,1,1,40,8,32,32,0,0,1,72,40Zm0,0" class="cls-1" data-name="Path 23" transform="translate(-8)"/><path id="Path_24" d="M56,328a16,16,0,1,1-16-16A16,16,0,0,1,56,328Zm0,0" class="cls-2" data-name="Path 24"/><path id="Path_25" d="M176,208h16a32.032,32.032,0,0,1,32-32V160A48.047,48.047,0,0,0,176,208Zm0,0" class="cls-6" data-name="Path 25"/><path id="Path_26" d="M152,360v16a8.015,8.015,0,0,1,8,8h16A24.031,24.031,0,0,0,152,360Zm0,0" class="cls-6" data-name="Path 26"/><path id="Path_27" d="M496,152V136H480V104H464v32H448V80H432v56H416V56H400v85.785L388.289,161.3A112.86,112.86,0,0,0,344,152a111.267,111.267,0,0,0-52.566,13.16,81.577,81.577,0,0,0-14.672-17.1l34.711-47.742A39.425,39.425,0,0,0,328,104a40.175,40.175,0,1,0-29.473-13.062l-34.734,47.719A79.1,79.1,0,0,0,224,128a77.826,77.826,0,0,0-8,.48V78.527a24,24,0,1,0-16,0v53.32a79.785,79.785,0,0,0-34.824,22.016l-91.84-91.84A40.12,40.12,0,1,0,62.023,73.336L155.488,166.8A78.9,78.9,0,0,0,144.441,200H86.519a24,24,0,1,0,0,16h57.914a79.276,79.276,0,0,0,43.125,63.176L167.566,330.3a55.451,55.451,0,0,0-63.613,25.023L63.566,332.246A23.67,23.67,0,0,0,64,328a24.291,24.291,0,1,0-8.434,18.113l42.227,24.125a55.158,55.158,0,0,0,9.4,47.258l-32.9,32.9A23.712,23.712,0,0,0,64,448a24.191,24.191,0,1,0,21.609,13.7L118.5,428.809A55.387,55.387,0,0,0,152,440a56.087,56.087,0,0,0,53.551-39.641l34.93,4.367a24.187,24.187,0,1,0,2.367-15.832l-34.879-4.359c.008-.184.031-.352.031-.535a56.16,56.16,0,0,0-25.84-47.1l20.289-51.879A79.31,79.31,0,0,0,224,288a80.451,80.451,0,0,0,10.512-.77C245.336,338.359,290.984,376,344,376a110.711,110.711,0,0,0,29.543-4.047l60.289,107.184A33.329,33.329,0,0,0,462.961,496,33.136,33.136,0,0,0,496,462.961a32.087,32.087,0,0,0-4.742-17L427.047,338.922a111.786,111.786,0,0,0-24.437-170.387L412.527,152ZM208,48a8,8,0,1,1-8,8A8.015,8.015,0,0,1,208,48Zm56,344a8,8,0,1,1-8,8A8.015,8.015,0,0,1,264,392ZM328,40a24,24,0,0,1,0,48,23.434,23.434,0,0,1-14.129-4.656A23.963,23.963,0,0,1,328,40ZM40,64A24,24,0,1,1,64,40,24.031,24.031,0,0,1,40,64ZM64,216a8,8,0,1,1,8-8A8.015,8.015,0,0,1,64,216ZM40,336a8,8,0,1,1,8-8A8.015,8.015,0,0,1,40,336ZM64,480a8,8,0,0,1,0-16,7.786,7.786,0,0,1,5.7,2.449A7.651,7.651,0,0,1,72,472,8.015,8.015,0,0,1,64,480Zm128-96a40.047,40.047,0,0,1-40,40,40,40,0,1,1,16.734-76.289l.059.023A40.134,40.134,0,0,1,192,384Zm8.672-116.406a63.988,63.988,0,1,1,60.48-111.664,65.826,65.826,0,0,1,16.742,17.727A111.085,111.085,0,0,0,232,264c0,2.473.09,4.895.246,7.3a63.565,63.565,0,0,1-31.574-3.7Zm214.535,82.645,8.16,13.617-26.953,16.191-7.637-13.566a112.846,112.846,0,0,0,26.43-16.242ZM480,462.961A17.127,17.127,0,0,1,462.64,480a17.118,17.118,0,0,1-14.863-8.719l-43.512-77.3,27.336-16.4,46.016,76.746A16.278,16.278,0,0,1,480,462.962ZM440,264a95.188,95.188,0,0,1-28.5,68.223,96.894,96.894,0,0,1-36.742,22.688A94.4,94.4,0,0,1,344,360a96.268,96.268,0,0,1-95.113-83.016A93.674,93.674,0,0,1,248,264a95.8,95.8,0,0,1,132.008-88.895l-8.352,13.91a79.424,79.424,0,0,0-77.527,12.5l9.984,12.5A63.3,63.3,0,0,1,344,200a63.994,63.994,0,0,1,19.238,3.039l-10.1,16.84,13.727,8.227,10.961-18.273A64.2,64.2,0,0,1,408,264a63.3,63.3,0,0,1-14.008,39.887l12.5,9.984a79.682,79.682,0,0,0-20.449-117.727l8.336-13.887A95.727,95.727,0,0,1,440,264Zm0,0" class="cls-6" data-name="Path 27"/><path id="Path_28" d="M344,328a64.073,64.073,0,0,1-64-64,63.3,63.3,0,0,1,14.008-39.887l-12.5-9.984A79.94,79.94,0,0,0,393.871,326.488l-9.984-12.5A63.3,63.3,0,0,1,344,328Zm0,0" class="cls-6" data-name="Path 28"/></g></svg>