<svg height="512pt" viewBox="0 0 512 512" width="512pt" xmlns="http://www.w3.org/2000/svg"><path d="m461.085938 99.167969c0 13.253906-10.746094 24-24 24-13.253907 0-24-10.746094-24-24 0-13.253907 10.746093-24 24-24 13.253906 0 24 10.746093 24 24zm0 0" fill="#72d8ff"/><path d="m74.777344 462c0 13.253906-10.746094 24-24 24s-24-10.746094-24-24 10.746094-24 24-24 24 10.746094 24 24zm0 0" fill="#72d8ff"/><path d="m312 167.339844v-109.339844h-112v109.335938c-67.496094 23.234374-116 87.277343-116 162.664062 0 94.992188 77.007812 172 172 172s172-77.007812 172-172c0-75.386719-48.503906-139.429688-116-162.660156zm0 0" fill="#c9f3ff"/><path d="m180 10h152v48h-152zm0 0" fill="#c9f3ff"/><path d="m376 355.410156v-50.820312h-20.347656c-2.449219-9.644532-6.265625-18.742188-11.226563-27.078125l14.394531-14.394531-35.9375-35.9375-14.394531 14.394531c-8.339843-4.960938-17.433593-8.777344-27.078125-11.226563v-20.347656h-50.820312v20.347656c-9.644532 2.449219-18.742188 6.265625-27.078125 11.226563l-14.394531-14.394531-35.9375 35.9375 14.394531 14.394531c-4.960938 8.339843-8.777344 17.433593-11.226563 27.078125h-20.347656v50.820312h20.347656c2.449219 9.644532 6.265625 18.742188 11.226563 27.078125l-14.394531 14.394531 35.9375 35.9375 14.394531-14.394531c8.339843 4.960938 17.433593 8.777344 27.078125 11.226563v20.347656h50.820312v-20.347656c9.644532-2.449219 18.742188-6.265625 27.078125-11.226563l14.394531 14.394531 35.9375-35.9375-14.394531-14.394531c4.960938-8.339843 8.777344-17.433593 11.226563-27.078125zm0 0" fill="#ff5d5d"/><path d="m308 330c0 28.71875-23.28125 52-52 52s-52-23.28125-52-52 23.28125-52 52-52 52 23.28125 52 52zm0 0" fill="#fff"/><path d="m180 68h122v99.339844c0 4.265625 2.710938 8.0625 6.746094 9.453125 51.960937 17.886719 92.136718 62.152343 104.851562 115.527343 1.09375 4.59375 5.195313 7.683594 9.71875 7.683594.769532 0 1.546875-.089844 2.328125-.273437 5.371094-1.28125 8.6875-6.671875 7.410157-12.046875-7.082032-29.726563-21.757813-57.445313-42.4375-80.160156-18.941407-20.804688-42.550782-37.007813-68.613282-47.167969v-92.355469h10c5.519532 0 10-4.476562 10-10v-48c0-5.523438-4.480468-10-10-10h-152.003906c-5.523438 0-10 4.476562-10 10v48c0 5.523438 4.476562 10 10 10zm10-48h132v28h-132zm0 0"/><path d="m425.640625 360.273438c-5.371094-1.277344-10.765625 2.039062-12.042969 7.410156-17.433594 73.195312-82.242187 124.316406-157.597656 124.316406-89.328125 0-162-72.671875-162-162 0-69.144531 43.90625-130.714844 109.253906-153.207031 4.035156-1.390625 6.746094-5.1875 6.746094-9.453125v-29.339844c0-5.523438-4.476562-10-10-10s-10 4.476562-10 10v22.355469c-69.679688 27.085937-116 94.371093-116 169.644531 0 100.355469 81.644531 182 182 182 41.171875 0 81.519531-14.136719 113.605469-39.800781 31.59375-25.273438 54.125-60.746094 63.445312-99.882813 1.28125-5.371094-2.035156-10.761718-7.410156-12.042968zm0 0"/><path d="m192.929688 92.097656c-1.859376 1.859375-2.929688 4.441406-2.929688 7.070313 0 2.628906 1.070312 5.210937 2.929688 7.070312 1.859374 1.859375 4.441406 2.929688 7.070312 2.929688s5.210938-1.070313 7.070312-2.929688c1.859376-1.859375 2.929688-4.441406 2.929688-7.070312 0-2.628907-1.070312-5.210938-2.929688-7.070313-1.859374-1.859375-4.441406-2.929687-7.070312-2.929687s-5.210938 1.070312-7.070312 2.929687zm0 0"/><path d="m428 320c-5.523438 0-10 4.476562-10 10v.105469c0 5.523437 4.476562 10 10 10s10-4.476563 10-10v-.105469c0-5.523438-4.476562-10-10-10zm0 0"/><path d="m256 268c-34.1875 0-62 27.8125-62 62s27.8125 62 62 62 62-27.8125 62-62-27.8125-62-62-62zm0 104c-23.160156 0-42-18.839844-42-42s18.839844-42 42-42 42 18.839844 42 42-18.839844 42-42 42zm0 0"/><path d="m376 365.410156c5.523438 0 10-4.476562 10-10v-50.820312c0-5.523438-4.476562-10-10-10h-12.855469c-1.734375-5.246094-3.855469-10.363282-6.347656-15.308594l9.097656-9.09375c3.90625-3.90625 3.90625-10.238281 0-14.144531l-35.941406-35.9375c-3.902344-3.902344-10.234375-3.902344-14.140625 0l-9.09375 9.097656c-4.945312-2.492187-10.058594-4.613281-15.308594-6.351563v-12.851562c0-5.523438-4.476562-10-10-10h-50.820312c-5.523438 0-10 4.476562-10 10v12.855469c-5.25 1.734375-10.363282 3.855469-15.308594 6.347656l-9.09375-9.097656c-3.90625-3.902344-10.238281-3.902344-14.144531 0l-35.9375 35.941406c-1.875 1.875-2.929688 4.417969-2.929688 7.070313 0 2.652343 1.054688 5.195312 2.929688 7.070312l9.09375 9.09375c-2.492188 4.945312-4.613281 10.058594-6.347657 15.308594h-12.851562c-5.523438 0-10 4.476562-10 10v50.820312c0 5.523438 4.476562 10 10 10h12.855469c1.734375 5.25 3.855469 10.363282 6.347656 15.308594l-9.097656 9.09375c-1.875 1.875-2.925781 4.417969-2.925781 7.070312 0 2.652344 1.050781 5.195313 2.925781 7.070313l35.941406 35.941406c1.875 1.875 4.417969 2.925781 7.070313 2.925781 2.652343 0 5.195312-1.050781 7.070312-2.925781l9.09375-9.097656c4.945312 2.492187 10.0625 4.613281 15.308594 6.347656v12.855469c0 5.523438 4.476562 10 10 10h50.820312c5.523438 0 10-4.476562 10-10v-12.855469c5.25-1.730469 10.363282-3.851562 15.308594-6.347656l9.09375 9.097656c1.875 1.875 4.417969 2.929688 7.070312 2.929688 2.652344 0 5.195313-1.054688 7.070313-2.929688l35.941406-35.9375c3.902344-3.90625 3.902344-10.238281 0-14.144531l-9.097656-9.09375c2.492187-4.945312 4.613281-10.058594 6.347656-15.308594zm-20.347656-20c-4.574219 0-8.5625 3.105469-9.691406 7.539063-2.179688 8.570312-5.585938 16.789062-10.128907 24.425781-2.339843 3.933594-1.710937 8.949219 1.523438 12.183594l7.324219 7.324218-21.792969 21.796876-7.328125-7.324219c-3.234375-3.234375-8.25-3.863281-12.183594-1.523438-7.636719 4.542969-15.855469 7.953125-24.425781 10.132813-4.433594 1.125-7.535157 5.117187-7.535157 9.691406v10.34375h-30.824218v-10.347656c0-4.574219-3.105469-8.5625-7.535156-9.6875-8.570313-2.179688-16.789063-5.589844-24.429688-10.132813-3.929688-2.339843-8.949219-1.710937-12.183594 1.523438l-7.324218 7.324219-21.796876-21.796876 7.324219-7.324218c3.238281-3.234375 3.863281-8.25 1.523438-12.183594-4.542969-7.636719-7.949219-15.855469-10.128907-24.429688-1.128906-4.429687-5.117187-7.535156-9.691406-7.535156h-10.347656v-30.820312h10.347656c4.574219 0 8.5625-3.105469 9.691406-7.539063 2.179688-8.570312 5.585938-16.789062 10.128907-24.429687 2.339843-3.929688 1.710937-8.945313-1.523438-12.183594l-7.324219-7.324219 21.796876-21.792969 7.324218 7.324219c3.234375 3.234375 8.25 3.859375 12.183594 1.523438 7.636719-4.542969 15.855469-7.953125 24.429688-10.132813 4.429687-1.128906 7.535156-5.117187 7.535156-9.691406v-10.34375h30.820312v10.347656c0 4.570313 3.105469 8.5625 7.535156 9.6875 8.578126 2.183594 16.792969 5.589844 24.429688 10.132813 3.929688 2.339843 8.949219 1.710937 12.183594-1.523438l7.324218-7.324219 21.796876 21.796876-7.324219 7.324218c-3.234375 3.234375-3.863281 8.25-1.523438 12.183594 4.542969 7.636719 7.949219 15.855469 10.128907 24.429688 1.128906 4.433593 5.117187 7.535156 9.691406 7.535156h10.347656v30.824218h-10.347656zm0 0"/><path d="m502 453.382812h-16.382812c-5.523438 0-10 4.476563-10 10 0 5.523438 4.476562 10 10 10h16.382812c5.523438 0 10-4.476562 10-10 0-5.523437-4.476562-10-10-10zm0 0"/><path d="m461.996094 412.984375c-5.523438 0-10 4.480469-10 10v14.453125c0 5.523438 4.476562 10 10 10 5.523437 0 10-4.476562 10-10v-14.453125c0-5.519531-4.476563-10-10-10zm0 0"/><path d="m436.472656 453.382812h-15.253906c-5.523438 0-10 4.476563-10 10 0 5.523438 4.476562 10 10 10h15.253906c5.523438 0 10-4.476562 10-10 0-5.523437-4.476562-10-10-10zm0 0"/><path d="m461.996094 480.359375c-5.523438 0-10 4.480469-10 10v11.640625c0 5.523438 4.476562 10 10 10 5.523437 0 10-4.476562 10-10v-11.640625c0-5.519531-4.476563-10-10-10zm0 0"/><path d="m74.394531 138.890625h16.386719c5.523438 0 10-4.480469 10-10 0-5.523437-4.476562-10-10-10h-16.386719c-5.523437 0-10 4.476563-10 10 0 5.519531 4.480469 10 10 10zm0 0"/><path d="m50.777344 112.945312c5.523437 0 10-4.476562 10-10v-14.453124c0-5.519532-4.476563-10-10-10-5.523438 0-10 4.480468-10 10v14.453124c0 5.523438 4.476562 10 10 10zm0 0"/><path d="m35.253906 128.890625c0-5.523437-4.476562-10-10-10h-15.253906c-5.523438 0-10 4.476563-10 10 0 5.519531 4.476562 10 10 10h15.253906c5.523438 0 10-4.480469 10-10zm0 0"/><path d="m50.777344 177.507812c5.523437 0 10-4.480468 10-10v-11.640624c0-5.519532-4.476563-10-10-10-5.523438 0-10 4.480468-10 10v11.640624c0 5.519532 4.476562 10 10 10zm0 0"/><path d="m437.085938 133.167969c18.75 0 34-15.253907 34-34 0-18.746094-15.25-34-34-34-18.746094 0-34 15.253906-34 34 0 18.746093 15.253906 34 34 34zm0-48c7.71875 0 14 6.28125 14 14s-6.28125 14-14 14-14-6.28125-14-14 6.28125-14 14-14zm0 0"/><path d="m50.777344 428c-18.75 0-34 15.253906-34 34s15.25 34 34 34c18.746094 0 34-15.253906 34-34s-15.253906-34-34-34zm0 48c-7.71875 0-14-6.28125-14-14s6.28125-14 14-14 14 6.28125 14 14-6.28125 14-14 14zm0 0"/><path d="m461.078125 215.089844c2.640625 0 5.210937-1.070313 7.082031-2.933594 1.859375-1.859375 2.929688-4.4375 2.929688-7.066406 0-2.640625-1.070313-5.210938-2.929688-7.070313s-4.441406-2.929687-7.082031-2.929687c-2.628906 0-5.207031 1.066406-7.066406 2.929687-1.863281 1.859375-2.921875 4.4375-2.921875 7.070313 0 2.628906 1.058594 5.207031 2.921875 7.066406 1.867187 1.863281 4.4375 2.933594 7.066406 2.933594zm0 0"/><path d="m361.671875 142.339844c2.628906 0 5.199219-1.070313 7.066406-2.941406 1.863281-1.859376 2.933594-4.429688 2.933594-7.058594 0-2.640625-1.070313-5.210938-2.933594-7.070313-1.867187-1.871093-4.4375-2.929687-7.066406-2.929687-2.640625 0-5.210937 1.058594-7.070313 2.929687-1.871093 1.859375-2.929687 4.429688-2.929687 7.070313 0 2.628906 1.058594 5.199218 2.929687 7.058594 1.859376 1.871093 4.429688 2.941406 7.070313 2.941406zm0 0"/><path d="m27.671875 329.996094c0 2.640625 1.058594 5.210937 2.929687 7.070312 1.859376 1.859375 4.429688 2.929688 7.070313 2.929688 2.628906 0 5.207031-1.066406 7.066406-2.929688 1.863281-1.859375 2.933594-4.429687 2.933594-7.070312 0-2.628906-1.070313-5.207032-2.933594-7.066406-1.859375-1.863282-4.4375-2.933594-7.066406-2.933594-2.640625 0-5.222656 1.070312-7.070313 2.933594-1.871093 1.859374-2.929687 4.4375-2.929687 7.066406zm0 0"/></svg>