<svg xmlns="http://www.w3.org/2000/svg" width="512" height="512" viewBox="0 0 512 512">
  <defs>
    <style>
      .cls-1 {
        fill: #18ffff;
      }

      .cls-2 {
        fill: #117db6;
      }

      .cls-3 {
        fill: #000421;
      }

      .cls-4 {
        fill: #11263f;
      }
    </style>
  </defs>
  <g id="bioengineering" transform="translate(0 0)">
    <path id="Path_29" data-name="Path 29" class="cls-1" d="M461.086,99.168a24,24,0,1,1-24-24A24,24,0,0,1,461.086,99.168Zm0,0"/>
    <path id="Path_30" data-name="Path 30" class="cls-1" d="M74.777,462a24,24,0,1,1-24-24A24,24,0,0,1,74.777,462Zm0,0"/>
    <path id="Path_31" data-name="Path 31" class="cls-1" d="M312,167.34V58H200V167.336a172.006,172.006,0,1,0,112,0Zm0,0"/>
    <path id="Path_32" data-name="Path 32" class="cls-1" d="M180,10H332V58H180Zm0,0"/>
    <path id="Path_33" data-name="Path 33" class="cls-2" d="M376,355.41V304.59H355.652a102.041,102.041,0,0,0-11.227-27.078l14.395-14.395L322.883,227.18l-14.395,14.395a102.1,102.1,0,0,0-27.078-11.227V210H230.59v20.348a102.041,102.041,0,0,0-27.078,11.227L189.117,227.18,153.18,263.117l14.395,14.395a102.1,102.1,0,0,0-11.227,27.078H136v50.82h20.348a102.041,102.041,0,0,0,11.227,27.078L153.18,396.883l35.938,35.938,14.395-14.395a102.1,102.1,0,0,0,27.078,11.227V450h50.82V429.652a102.041,102.041,0,0,0,27.078-11.227l14.395,14.395,35.938-35.937-14.395-14.395a102.1,102.1,0,0,0,11.227-27.078Zm0,0"/>
    <path id="Path_34" data-name="Path 34" class="cls-3" d="M308,330a52,52,0,1,1-52-52A52,52,0,0,1,308,330Zm0,0"/>
    <path id="Path_35" data-name="Path 35" class="cls-4" d="M180,68H302v99.34a10,10,0,0,0,6.746,9.453C360.707,194.68,400.883,238.945,413.6,292.32A10,10,0,0,0,423.317,300a10.154,10.154,0,0,0,2.328-.273,10,10,0,0,0,7.41-12.047A182.359,182.359,0,0,0,322,160.355V68h10a10,10,0,0,0,10-10V10A10,10,0,0,0,332,0H180a10,10,0,0,0-10,10V58a10,10,0,0,0,10,10Zm10-48H322V48H190Zm0,0"/>
    <path id="Path_36" data-name="Path 36" class="cls-4" d="M425.641,360.273a10,10,0,0,0-12.043,7.41A161.388,161.388,0,0,1,256,492c-89.328,0-162-72.672-162-162A162.055,162.055,0,0,1,203.254,176.792,10,10,0,0,0,210,167.339V138a10,10,0,1,0-20,0v22.355A182.065,182.065,0,0,0,74,330c0,100.355,81.645,182,182,182A182.06,182.06,0,0,0,433.05,372.316a10,10,0,0,0-7.41-12.043Zm0,0"/>
    <path id="Path_37" data-name="Path 37" class="cls-4" d="M192.93,92.1a10,10,0,1,0,7.07-2.93A10.08,10.08,0,0,0,192.93,92.1Zm0,0"/>
    <path id="Path_38" data-name="Path 38" class="cls-4" d="M428,320a10,10,0,0,0-10,10v.105a10,10,0,0,0,20,0V330A10,10,0,0,0,428,320Zm0,0"/>
    <path id="Path_39" data-name="Path 39" class="cls-4" d="M256,268a62,62,0,1,0,62,62A62.069,62.069,0,0,0,256,268Zm0,104a42,42,0,1,1,42-42A42.046,42.046,0,0,1,256,372Zm0,0"/>
    <path id="Path_40" data-name="Path 40" class="cls-4" d="M376,365.41a10,10,0,0,0,10-10V304.59a10,10,0,0,0-10-10H363.145a112.45,112.45,0,0,0-6.348-15.309l9.1-9.094a10,10,0,0,0,0-14.145l-35.941-35.937a10,10,0,0,0-14.141,0l-9.094,9.1a112.763,112.763,0,0,0-15.309-6.352V210a10,10,0,0,0-10-10H230.59a10,10,0,0,0-10,10v12.855a112.245,112.245,0,0,0-15.309,6.348l-9.094-9.1a10.008,10.008,0,0,0-14.145,0l-35.937,35.941a10,10,0,0,0,0,14.141l9.094,9.094a112.246,112.246,0,0,0-6.348,15.309H136a10,10,0,0,0-10,10v50.82a10,10,0,0,0,10,10h12.855a112.244,112.244,0,0,0,6.348,15.309l-9.1,9.094a10.006,10.006,0,0,0,0,14.141l35.941,35.941a10.006,10.006,0,0,0,14.141,0l9.094-9.1a112.451,112.451,0,0,0,15.309,6.348V450a10,10,0,0,0,10,10h50.82a10,10,0,0,0,10-10V437.144a111.264,111.264,0,0,0,15.309-6.348l9.094,9.1a10,10,0,0,0,14.141,0l35.941-35.937a10.008,10.008,0,0,0,0-14.145l-9.1-9.094a112.246,112.246,0,0,0,6.348-15.309Zm-20.348-20a10,10,0,0,0-9.691,7.539,92.214,92.214,0,0,1-10.129,24.426,10,10,0,0,0,1.523,12.184l7.324,7.324-21.793,21.8-7.328-7.324a10,10,0,0,0-12.184-1.523,92.224,92.224,0,0,1-24.426,10.133,10,10,0,0,0-7.535,9.691V440H240.59V429.652a10,10,0,0,0-7.535-9.687,92.3,92.3,0,0,1-24.43-10.133,10,10,0,0,0-12.184,1.523l-7.324,7.324-21.8-21.8,7.324-7.324a9.993,9.993,0,0,0,1.523-12.184,92.185,92.185,0,0,1-10.129-24.43,10,10,0,0,0-9.691-7.535H146V314.59h10.348a10,10,0,0,0,9.691-7.539,92.292,92.292,0,0,1,10.129-24.43,10,10,0,0,0-1.523-12.184l-7.324-7.324,21.8-21.793,7.324,7.324a10,10,0,0,0,12.184,1.523,92.2,92.2,0,0,1,24.43-10.133,10,10,0,0,0,7.535-9.691V220h30.82v10.348a10,10,0,0,0,7.535,9.688,92.271,92.271,0,0,1,24.43,10.133,10,10,0,0,0,12.184-1.523l7.324-7.324,21.8,21.8-7.324,7.324a10,10,0,0,0-1.523,12.184,92.185,92.185,0,0,1,10.129,24.43,10,10,0,0,0,9.691,7.535H366v30.824H355.652Zm0,0"/>
    <path id="Path_41" data-name="Path 41" class="cls-4" d="M502,453.383H485.617a10,10,0,0,0,0,20H502a10,10,0,0,0,0-20Zm0,0"/>
    <path id="Path_42" data-name="Path 42" class="cls-4" d="M462,412.984a10,10,0,0,0-10,10v14.453a10,10,0,0,0,20,0V422.984A10,10,0,0,0,462,412.984Zm0,0"/>
    <path id="Path_43" data-name="Path 43" class="cls-4" d="M436.473,453.383H421.219a10,10,0,0,0,0,20h15.254a10,10,0,0,0,0-20Zm0,0"/>
    <path id="Path_44" data-name="Path 44" class="cls-4" d="M462,480.359a10,10,0,0,0-10,10V502a10,10,0,0,0,20,0V490.359A10,10,0,0,0,462,480.359Zm0,0"/>
    <path id="Path_45" data-name="Path 45" class="cls-4" d="M74.395,138.891H90.781a10,10,0,0,0,0-20H74.395a10,10,0,0,0,0,20Zm0,0"/>
    <path id="Path_46" data-name="Path 46" class="cls-4" d="M50.777,112.945a10,10,0,0,0,10-10V88.492a10,10,0,0,0-20,0v14.453A10,10,0,0,0,50.777,112.945Zm0,0"/>
    <path id="Path_47" data-name="Path 47" class="cls-4" d="M35.254,128.891a10,10,0,0,0-10-10H10a10,10,0,0,0,0,20H25.254A10,10,0,0,0,35.254,128.891Zm0,0"/>
    <path id="Path_48" data-name="Path 48" class="cls-4" d="M50.777,177.508a10,10,0,0,0,10-10V155.867a10,10,0,0,0-20,0v11.641A10,10,0,0,0,50.777,177.508Zm0,0"/>
    <path id="Path_49" data-name="Path 49" class="cls-4" d="M437.086,133.168a34,34,0,1,0-34-34A34.038,34.038,0,0,0,437.086,133.168Zm0-48a14,14,0,1,1-14,14A14.017,14.017,0,0,1,437.086,85.168Zm0,0"/>
    <path id="Path_50" data-name="Path 50" class="cls-4" d="M50.777,428a34,34,0,1,0,34,34,34.038,34.038,0,0,0-34-34Zm0,48a14,14,0,1,1,14-14,14.017,14.017,0,0,1-14,14Zm0,0"/>
    <path id="Path_51" data-name="Path 51" class="cls-4" d="M461.078,215.09a10,10,0,1,0-7.066-2.934A10.094,10.094,0,0,0,461.078,215.09Zm0,0"/>
    <path id="Path_52" data-name="Path 52" class="cls-4" d="M361.672,142.34a10.023,10.023,0,1,0-7.07-2.941A10.046,10.046,0,0,0,361.672,142.34Zm0,0"/>
    <path id="Path_53" data-name="Path 53" class="cls-4" d="M27.672,330a10.009,10.009,0,1,0,2.93-7.066A10.009,10.009,0,0,0,27.672,330Zm0,0"/>
  </g>
</svg>
