<svg xmlns="http://www.w3.org/2000/svg" width="512.002" height="512" viewBox="0 0 512.002 512"><defs><style>.cls-1{fill:#178c7a}.cls-2{fill:#18ffff}.cls-3{fill:#4bd7c8}.cls-4{fill:#117db6}.cls-5{fill:#11263f}</style></defs><g id="brain" transform="translate(0 -0.001)"><path id="Path_54" d="M344.177,376.243H167.823a32.065,32.065,0,0,1-32.065-32.065V167.824a32.065,32.065,0,0,1,32.065-32.065H344.178a32.065,32.065,0,0,1,32.065,32.065V344.179A32.066,32.066,0,0,1,344.177,376.243Z" class="cls-1" data-name="Path 54"/><path id="Path_55" d="M344.177,352.2H167.823a8.016,8.016,0,0,1-8.016-8.016V167.824a8.016,8.016,0,0,1,8.016-8.016H344.178a8.016,8.016,0,0,1,8.016,8.016V344.179A8.016,8.016,0,0,1,344.177,352.2Z" class="cls-2" data-name="Path 55"/><g id="Group_2" data-name="Group 2"><circle id="Ellipse_1" cx="16.03" cy="16.03" r="16.03" class="cls-2" data-name="Ellipse 1" transform="translate(23.535 175.841)"/><circle id="Ellipse_2" cx="16.03" cy="16.03" r="16.03" class="cls-2" data-name="Ellipse 2" transform="translate(456.41 304.101)"/></g><g id="Group_3" data-name="Group 3"><circle id="Ellipse_3" cx="16.03" cy="16.03" r="16.03" class="cls-2" data-name="Ellipse 3" transform="translate(7.502 376.241)"/><circle id="Ellipse_4" cx="16.03" cy="16.03" r="16.03" class="cls-2" data-name="Ellipse 4" transform="translate(472.44 103.701)"/></g><g id="Group_4" data-name="Group 4"><circle id="Ellipse_5" cx="16.03" cy="16.03" r="16.03" class="cls-3" data-name="Ellipse 5" transform="translate(304.1 23.536)"/><circle id="Ellipse_6" cx="16.03" cy="16.03" r="16.03" class="cls-3" data-name="Ellipse 6" transform="translate(175.84 456.411)"/></g><g id="Group_5" data-name="Group 5"><circle id="Ellipse_7" cx="16.03" cy="16.03" r="16.03" class="cls-2" data-name="Ellipse 7" transform="translate(103.7 7.503)"/><circle id="Ellipse_8" cx="16.03" cy="16.03" r="16.03" class="cls-2" data-name="Ellipse 8" transform="translate(376.24 472.441)"/></g><path id="Path_56" d="M256,324.248a8.017,8.017,0,0,1,5.981,2.677,28.171,28.171,0,0,0,21.074,9.237c14.028,0,25.81-9.821,26.82-22.354a8.029,8.029,0,0,1,3.953-6.278c8.83-5.155,14.318-14.15,14.318-23.473a26.183,26.183,0,0,0-7.9-18.408,8.019,8.019,0,0,1,0-11.281,26.183,26.183,0,0,0,7.9-18.408c0-12.106-8.838-22.776-21.99-26.553a8.02,8.02,0,0,1-5.6-9.507,17.858,17.858,0,0,0,.532-4.02c0-11.05-10.114-20.04-22.545-20.04a23.853,23.853,0,0,0-16.862,6.775,8.259,8.259,0,0,1-11.367,0,23.849,23.849,0,0,0-16.862-6.775c-12.431,0-22.545,8.991-22.545,20.04a18.616,18.616,0,0,0,.431,3.949,8.014,8.014,0,0,1-5.613,9.429c-13.081,3.769-21.872,14.5-21.872,26.7a25.459,25.459,0,0,0,6.067,16.283,8.018,8.018,0,0,1,.2,9.938,29.554,29.554,0,0,0-6.263,17.868c0,10,5.417,19.59,14.5,25.645a8.023,8.023,0,0,1,3.57,6.6c.11,13.159,12.236,23.864,27.023,23.864a28.171,28.171,0,0,0,21.074-9.237A8.008,8.008,0,0,1,256,324.248Z" class="cls-4" data-name="Path 56"/><path id="Path_57" d="M504.5,248.5H383.742V231.437h32.581a7.5,7.5,0,0,0,0-15H383.742V199.372h22.62a31.339,31.339,0,0,0,22.308-9.24L478,140.806A23.518,23.518,0,1,0,467.389,130.2l-49.326,49.326a16.441,16.441,0,0,1-11.7,4.847h-22.62V167.824a39.609,39.609,0,0,0-39.564-39.564H327.629v-66.4a23.532,23.532,0,1,0-15,0v66.394H295.565V95.678a7.5,7.5,0,0,0-15,0v32.581H263.5V7.5a7.5,7.5,0,0,0-15,0V128.259H231.436V95.678a7.5,7.5,0,1,0-15,0v32.581H199.372V105.64a31.34,31.34,0,0,0-9.241-22.308L140.788,33.989A23.544,23.544,0,1,0,130.182,44.6l49.343,49.344a16.437,16.437,0,0,1,4.847,11.7v22.619H167.824a39.731,39.731,0,0,0-9.888,1.247,7.5,7.5,0,0,0,3.739,14.527,24.7,24.7,0,0,1,6.148-.774H344.177a24.592,24.592,0,0,1,24.564,24.564V344.178a24.706,24.706,0,0,1-.772,6.143,7.5,7.5,0,1,0,14.527,3.734,39.691,39.691,0,0,0,1.245-9.878V327.629h66.394a23.532,23.532,0,1,0,0-15H383.741V295.564h32.581a7.5,7.5,0,0,0,0-15H383.741V263.5H504.5a7.5,7.5,0,0,0,0-15ZM482.435,113.694a8.532,8.532,0,1,1,0,12.066h0a8.532,8.532,0,0,1,0-12.066ZM320.129,31.033a8.532,8.532,0,1,1-8.532,8.532A8.542,8.542,0,0,1,320.129,31.033ZM113.692,29.567a8.532,8.532,0,1,1,12.067,0h0A8.544,8.544,0,0,1,113.692,29.567ZM472.436,311.6a8.532,8.532,0,1,1-8.532,8.532A8.542,8.542,0,0,1,472.436,311.6Z" class="cls-5" data-name="Path 57"/><path id="Path_58" d="M381.819,467.407l-49.343-49.344a16.437,16.437,0,0,1-4.847-11.7V383.743h16.548a39.709,39.709,0,0,0,9.886-1.247,7.5,7.5,0,1,0-3.739-14.527,24.686,24.686,0,0,1-6.147.773H167.823a24.592,24.592,0,0,1-24.564-24.564V167.824a24.672,24.672,0,0,1,.773-6.146,7.5,7.5,0,1,0-14.526-3.74,39.65,39.65,0,0,0-1.247,9.886v16.548h-66.4a23.532,23.532,0,1,0,0,15h66.394v17.065H95.677a7.5,7.5,0,1,0,0,15h32.581V248.5H7.5a7.5,7.5,0,0,0,0,15H128.258v17.064H95.677a7.5,7.5,0,0,0,0,15h32.581V312.63h-22.62a31.339,31.339,0,0,0-22.308,9.24L34,371.2A23.512,23.512,0,1,0,44.613,381.8l49.326-49.326a16.441,16.441,0,0,1,11.7-4.847h22.62v16.548a39.609,39.609,0,0,0,39.564,39.564h16.548v66.394a23.532,23.532,0,1,0,15,0V383.741h17.064v32.581a7.5,7.5,0,0,0,15,0V383.741H248.5V504.5a7.5,7.5,0,0,0,15,0V383.743h17.064v32.581a7.5,7.5,0,0,0,15,0V383.743h17.064v22.619a31.34,31.34,0,0,0,9.241,22.308l49.343,49.343a23.533,23.533,0,1,0,10.607-10.606ZM39.564,200.4a8.532,8.532,0,1,1,8.532-8.532A8.542,8.542,0,0,1,39.564,200.4Zm-10,197.9a8.532,8.532,0,1,1,0-12.066h0a8.532,8.532,0,0,1,0,12.066Zm162.306,82.661a8.532,8.532,0,1,1,8.532-8.532A8.542,8.542,0,0,1,191.871,480.969ZM398.308,494.5a8.528,8.528,0,1,1,0-12.066A8.543,8.543,0,0,1,398.308,494.5Z" class="cls-5" data-name="Path 58"/><path id="Path_59" d="M194.392,312.1v.018c0,17.4,15.5,31.549,34.555,31.549A35.784,35.784,0,0,0,256,331.706a35.784,35.784,0,0,0,27.054,11.957c18.337,0,33.376-13.11,34.482-29.6,11.137-6.462,18.108-17.781,18.108-30a33.805,33.805,0,0,0-10.43-24.048,33.811,33.811,0,0,0,10.43-24.048c0-16.04-11.732-29.627-27.793-34.042a25.6,25.6,0,0,0,.739-6.039c0-15.186-13.479-27.541-30.045-27.541A31.2,31.2,0,0,0,256,177.705a31.2,31.2,0,0,0-22.545-9.365c-16.567,0-30.045,12.355-30.045,27.541a25.6,25.6,0,0,0,.739,6.039c-16.061,4.414-27.793,18-27.793,34.042a32.941,32.941,0,0,0,7.9,21.343,37.086,37.086,0,0,0-7.9,22.746C176.355,292.8,183.169,304.71,194.392,312.1Zm20.84-96.688c.067,0,.134.011.2.011a7.494,7.494,0,0,0,6.364-11.447c-.057-.092-.109-.186-.169-.275-.031-.045-.068-.088-.1-.133-.116-.163-.235-.323-.364-.477a.173.173,0,0,0-.011-.014,11.133,11.133,0,0,1-2.744-7.193c0-6.915,6.75-12.541,15.045-12.541S248.5,188.965,248.5,195.88a7.5,7.5,0,0,0,15,0c0-6.915,6.75-12.541,15.045-12.541s15.045,5.626,15.045,12.541a10.547,10.547,0,0,1-1.125,4.72,41.649,41.649,0,0,0-12.309,3.086,7.5,7.5,0,1,0,5.828,13.822,27.074,27.074,0,0,1,10.368-2.1c.072,0,.143.009.215.009s.133-.009.2-.011c13.183.086,23.877,9.271,23.877,20.552,0,7.091-4.314,13.6-11.541,17.416a7.5,7.5,0,0,0,0,13.266c7.227,3.814,11.541,10.325,11.541,17.416a19.185,19.185,0,0,1-6.607,14.1,33.67,33.67,0,0,0-19.717-15.879,7.5,7.5,0,0,0-4.5,14.31c7.646,2.4,12.784,8.642,12.784,15.525,0,9.125-8.772,16.549-19.555,16.549S263.5,321.24,263.5,312.115v-48.1c0-9.125,8.772-16.548,19.554-16.548a7.5,7.5,0,0,0,0-15,36.666,36.666,0,0,0-19.554,5.557v-9.58a7.5,7.5,0,1,0-15,0v41.637a35.726,35.726,0,0,0-8.286-3.836,7.5,7.5,0,0,0-4.5,14.31c7.646,2.4,12.783,8.642,12.783,15.524v16.032c0,9.125-8.772,16.549-19.554,16.549s-19.555-7.424-19.555-16.549a15.12,15.12,0,0,1,4.668-10.7,7.5,7.5,0,0,0-10.574-10.639,31.9,31.9,0,0,0-4.63,5.814,22.878,22.878,0,0,1-7.5-16.535c0-11.112,8.721-20.874,21.208-23.739a7.5,7.5,0,0,0-3.354-14.62,45.689,45.689,0,0,0-13.759,5.6,18.1,18.1,0,0,1-4.094-11.335C191.355,224.679,202.049,215.495,215.232,215.408Z" class="cls-5" data-name="Path 59"/></g></svg>