<svg xmlns="http://www.w3.org/2000/svg" width="341.334" height="341.334" viewBox="0 0 341.334 341.334">
  <defs>
    <style>
      .cls-1 {
        fill: rgba(49,49,224,0.2);
      }
    </style>
  </defs>
  <g id="cog" transform="translate(-2883 -780)">
    <path id="incomplete-wheel-3" class="cls-1" d="M273.645,131.431A102.4,102.4,0,1,0,106.659,243.038a8.533,8.533,0,0,0,12.066-12.066,85.333,85.333,0,1,1,120.61,0A8.533,8.533,0,1,0,251.4,243.038,102.4,102.4,0,0,0,273.645,131.431Z" transform="translate(2874.637 780)"/>
    <path id="Path_2912" data-name="Path 2912" class="cls-1" d="M306.842,284.262a16.837,16.837,0,0,0,2.091-21.5L295.2,242.082a135.434,135.434,0,0,0,16.512-39.74l24.269-4.821A17.067,17.067,0,0,0,349.7,180.736V160.6a17.067,17.067,0,0,0-13.653-16.734l-24.286-4.83a135.435,135.435,0,0,0-16.512-39.74l13.7-20.625a16.827,16.827,0,0,0-2.074-21.5L292.583,42.854a16.837,16.837,0,0,0-21.5-2.091L250.4,54.493a135.435,135.435,0,0,0-39.74-16.512l-4.821-24.269A17.068,17.068,0,0,0,189.1,0H168.96a17.066,17.066,0,0,0-16.734,13.7L147.4,37.982a135.435,135.435,0,0,0-39.74,16.512L87.032,40.8a16.827,16.827,0,0,0-21.5,2.031L51.218,57.114a16.837,16.837,0,0,0-2.091,21.5l13.73,20.676a135.435,135.435,0,0,0-16.512,39.74l-24.269,4.821A17.067,17.067,0,0,0,8.363,160.6v20.139a17.066,17.066,0,0,0,13.7,16.734l24.286,4.83a135.435,135.435,0,0,0,16.512,39.74l-13.7,20.625a16.827,16.827,0,0,0,2.031,21.495l14.285,14.293a16.845,16.845,0,0,0,21.5,2.091l20.676-13.73a135.434,135.434,0,0,0,39.74,16.512l4.821,24.269a17.067,17.067,0,0,0,16.742,13.739H189.1a17.067,17.067,0,0,0,16.734-13.653l4.83-24.286a135.435,135.435,0,0,0,39.74-16.512l20.625,13.7a17.066,17.066,0,0,0,9.574,2.97,16.845,16.845,0,0,0,11.947-5Zm8.03-127.2L332.63,160.6l.043,20.13-17.8,3.541c.444-4.48.691-9.011.691-13.6S315.316,161.545,314.872,157.065Zm-271.684,27.2L25.43,180.736v-20.13l17.758-3.593c-.444,4.531-.691,9.062-.691,13.653S42.744,179.789,43.188,184.269ZM280.577,54.963,294.742,69.18,284.673,84.3A137.559,137.559,0,0,0,265.4,65.033Zm-111.616-37.9h20.13l3.541,17.8a125.988,125.988,0,0,0-13.6-.734c-4.591,0-9.122.247-13.6.691ZM77.543,54.955,92.664,65.024A137.559,137.559,0,0,0,73.4,84.3L63.327,69.12Zm-.06,231.415L63.318,272.154l10.069-15.121A137.559,137.559,0,0,0,92.664,276.3Zm111.616,37.9-20.13.043-3.541-17.8c4.48.444,9.011.691,13.6.691s9.122-.247,13.6-.691ZM179.03,290.133A119.466,119.466,0,1,1,298.5,170.667,119.467,119.467,0,0,1,179.03,290.133Zm101.487-3.754L265.4,276.31a137.559,137.559,0,0,0,19.268-19.277l10.069,15.181Z" transform="translate(2874.637 780)"/>
    <path id="Path_2913" data-name="Path 2913" class="cls-1" d="M179.03,136.533a34.133,34.133,0,1,0,34.133,34.134A34.133,34.133,0,0,0,179.03,136.533Zm0,51.2A17.067,17.067,0,1,1,196.1,170.666,17.067,17.067,0,0,1,179.03,187.733Z" transform="translate(2874.637 780)"/>
  </g>
</svg>
