<svg width="496" height="512" viewBox="0 0 496 512" fill="none" xmlns="http://www.w3.org/2000/svg">
<g id="cog">
<g clip-path="url(#clip0)">
<g id="bottom cog">
<path id="Path 2915" d="M490.949 422.955L469.087 398.319C469.215 396.399 469.377 394.479 469.377 392.525C469.377 390.571 469.215 388.651 469.087 386.731L490.887 362.163C493.294 359.493 494.793 356.128 495.168 352.553C495.544 348.978 494.777 345.375 492.978 342.263L481.996 323.225C480.169 320.168 477.443 317.75 474.189 316.302C470.936 314.854 467.314 314.446 463.82 315.135L431.641 321.735C428.407 319.596 425.033 317.677 421.541 315.992L411.079 284.592C409.909 281.235 407.726 278.324 404.831 276.26C401.936 274.197 398.472 273.083 394.917 273.072H373.08C369.502 273.088 366.018 274.218 363.112 276.305C360.207 278.393 358.024 281.334 356.867 284.72L346.456 316C342.964 317.685 339.59 319.604 336.356 321.743L304.056 315.121C300.558 314.463 296.942 314.9 293.701 316.37C290.459 317.84 287.749 320.274 285.94 323.339L275.026 342.326C273.246 345.421 272.487 348.999 272.858 352.55C273.229 356.101 274.71 359.445 277.091 362.106L298.953 386.742C298.825 388.662 298.663 390.582 298.663 392.536C298.663 394.49 298.825 396.41 298.953 398.33L277.153 422.897C274.746 425.567 273.247 428.932 272.872 432.507C272.496 436.082 273.263 439.685 275.062 442.797L286.044 461.835C287.881 464.882 290.609 467.292 293.86 468.739C297.11 470.186 300.727 470.6 304.22 469.925L336.399 463.325C339.633 465.464 343.007 467.383 346.499 469.068L356.918 500.479C358.088 503.836 360.27 506.747 363.165 508.811C366.059 510.874 369.523 511.989 373.078 512H394.923C398.501 511.985 401.986 510.855 404.892 508.767C407.798 506.679 409.981 503.737 411.137 500.351L421.548 469.068C425.04 467.383 428.414 465.464 431.648 463.325L463.948 469.947C465.005 470.15 466.079 470.253 467.156 470.254C470.167 470.246 473.125 469.455 475.738 467.959C478.352 466.463 480.532 464.313 482.064 461.721L493.021 442.734C494.8 439.638 495.558 436.06 495.186 432.509C494.813 428.958 493.331 425.615 490.949 422.955ZM467.237 331.87L478.137 350.78L464.927 365.671C461.255 354.669 455.371 344.534 447.637 335.89L467.237 331.87ZM373.08 290.133L394.934 290.09L401.18 308.94C389.848 306.625 378.165 306.625 366.833 308.94L373.08 290.133ZM289.844 350.8L300.792 331.865L320.367 335.876C312.632 344.529 306.744 354.669 303.061 365.676L289.844 350.8ZM300.737 453.2L289.837 434.295L303.07 419.4C306.745 430.403 312.632 440.538 320.37 449.181L300.737 453.2ZM394.919 494.928L373.065 494.971L366.819 476.155C378.151 478.47 389.834 478.47 401.166 476.155L394.919 494.928ZM410.928 455.228L410.553 455.416C402.144 458.969 393.109 460.8 383.98 460.8C374.851 460.8 365.816 458.969 357.407 455.416L357.107 455.271C344.828 450.008 334.364 441.258 327.012 430.104C319.659 418.951 315.742 405.885 315.745 392.526C315.748 379.167 319.672 366.102 327.03 354.952C334.388 343.802 344.856 335.057 357.137 329.8L357.376 329.681C373.945 323.019 392.465 323.114 408.964 329.947C425.463 336.78 438.628 349.806 445.635 366.232C452.642 382.658 452.934 401.176 446.447 417.814C439.961 434.453 427.213 447.887 410.937 455.236L410.928 455.228ZM467.205 453.197L447.637 449.194C455.369 440.542 461.256 430.404 464.937 419.4L478.155 434.274L467.205 453.197Z" fill="#3131E0" fill-opacity="0.2"/>
<path id="incomplete wheel 2" d="M411.945 354.137C410.498 354.525 409.179 355.287 408.119 356.347C407.06 357.407 406.299 358.727 405.912 360.174C405.524 361.621 405.525 363.145 405.913 364.592C406.302 366.039 407.064 367.358 408.124 368.417C411.298 371.581 413.816 375.34 415.534 379.479C417.253 383.618 418.137 388.055 418.137 392.537C418.137 397.018 417.253 401.455 415.534 405.594C413.816 409.733 411.298 413.492 408.124 416.656C401.633 422.874 392.993 426.344 384.004 426.344C375.016 426.344 366.376 422.874 359.885 416.656C356.712 413.492 354.195 409.734 352.478 405.596C350.76 401.458 349.876 397.021 349.876 392.541C349.876 388.061 350.76 383.624 352.478 379.486C354.195 375.348 356.712 371.59 359.885 368.426C361.467 366.822 362.351 364.657 362.344 362.405C362.336 360.152 361.438 357.993 359.846 356.399C358.253 354.806 356.095 353.906 353.842 353.897C351.589 353.889 349.424 354.771 347.819 356.352C340.665 363.509 335.793 372.627 333.82 382.553C331.848 392.479 332.863 402.766 336.737 412.115C340.611 421.464 347.17 429.455 355.585 435.076C364 440.697 373.893 443.697 384.013 443.696C394.133 443.695 404.025 440.693 412.439 435.07C420.853 429.447 427.411 421.456 431.283 412.106C435.155 402.756 436.168 392.469 434.194 382.543C432.219 372.618 427.346 363.501 420.19 356.345C419.131 355.285 417.811 354.524 416.363 354.136C414.916 353.748 413.392 353.749 411.945 354.137V354.137Z" fill="#3131E0" fill-opacity="0.2"/>
<path id="Path 2916" d="M384 401.067C385.405 401.081 386.792 400.745 388.034 400.088C389.277 399.431 390.335 398.474 391.115 397.305C391.894 396.136 392.37 394.791 392.498 393.391C392.627 391.992 392.404 390.583 391.85 389.291C391.417 388.257 390.811 387.305 390.058 386.475C388.408 384.953 386.245 384.107 384 384.107C381.754 384.107 379.592 384.953 377.941 386.475C377.188 387.305 376.582 388.257 376.149 389.291C375.712 390.317 375.48 391.419 375.466 392.534C375.455 393.658 375.668 394.773 376.093 395.813C376.518 396.853 377.146 397.799 377.941 398.593C378.735 399.388 379.681 400.016 380.721 400.441C381.762 400.866 382.876 401.078 384 401.067V401.067Z" fill="#3131E0" fill-opacity="0.2"/>
</g>
<g id="top cog">
<path id="Path 2912" d="M298.479 284.262C301.293 281.492 303.045 277.822 303.427 273.892C303.809 269.961 302.798 266.022 300.57 262.762L286.837 242.082C294.424 229.8 299.998 216.384 303.349 202.342L327.618 197.521C331.495 196.745 334.983 194.648 337.485 191.586C339.987 188.525 341.348 184.69 341.337 180.736V160.6C341.34 156.664 339.982 152.848 337.494 149.799C335.006 146.749 331.54 144.653 327.684 143.866L303.398 139.036C300.047 124.994 294.473 111.578 286.886 99.296L300.586 78.671C302.818 75.4135 303.833 71.4748 303.454 67.5443C303.075 63.6138 301.325 59.9418 298.512 57.171L284.22 42.854C281.45 40.0397 277.78 38.2884 273.85 37.9061C269.919 37.5239 265.98 38.5351 262.72 40.763L242.037 54.493C229.755 46.9062 216.339 41.3318 202.297 37.981L197.476 13.712C196.7 9.84411 194.609 6.36432 191.557 3.86446C188.505 1.3646 184.682 -0.000967737 180.737 5.14547e-07H160.597C156.655 -0.00074747 152.833 1.3635 149.783 3.86095C146.732 6.3584 144.641 9.83499 143.863 13.7L139.037 37.982C124.995 41.3328 111.579 46.9072 99.297 54.494L78.669 40.8C75.4163 38.5627 71.4806 37.5402 67.5502 37.9115C63.6199 38.2828 59.9452 40.0241 57.169 42.831L42.855 57.114C40.0407 59.8837 38.2894 63.5544 37.9071 67.4845C37.5249 71.4145 38.5361 75.3539 40.764 78.614L54.494 99.29C46.9072 111.572 41.3328 124.988 37.982 139.03L13.713 143.851C9.84316 144.627 6.36174 146.72 3.86145 149.773C1.36117 152.827 -0.00341775 156.653 6.42856e-06 160.6V180.739C-0.000741556 184.681 1.36351 188.503 3.86096 191.553C6.3584 194.604 9.83499 196.695 13.7 197.473L37.986 202.303C41.3368 216.345 46.9112 229.761 54.498 242.043L40.798 262.668C38.562 265.92 37.5403 269.855 37.9116 273.784C38.2828 277.713 40.0234 281.387 42.829 284.163L57.114 298.456C59.8845 301.269 63.5551 303.019 67.4847 303.401C71.4144 303.784 75.3534 302.773 78.614 300.547L99.29 286.817C111.572 294.404 124.988 299.978 139.03 303.329L143.851 327.598C144.621 331.471 146.711 334.958 149.764 337.463C152.816 339.969 156.644 341.338 160.593 341.337H180.737C184.673 341.34 188.489 339.982 191.538 337.494C194.588 335.006 196.684 331.54 197.471 327.684L202.301 303.398C216.343 300.047 229.759 294.473 242.041 286.886L262.666 300.586C265.488 302.512 268.823 303.547 272.24 303.556C274.463 303.552 276.663 303.108 278.713 302.25C280.764 301.392 282.624 300.136 284.187 298.556L298.479 284.262ZM306.509 157.062L324.267 160.6L324.31 180.73L306.51 184.271C306.954 179.791 307.201 175.26 307.201 170.671C307.201 166.082 306.953 161.545 306.509 157.065V157.062ZM34.825 184.262L17.067 180.736V160.606L34.825 157.013C34.381 161.544 34.134 166.075 34.134 170.666C34.134 175.257 34.381 179.789 34.825 184.269V184.262ZM272.214 54.963L286.379 69.18L276.31 84.3C270.539 77.2556 264.083 70.8016 257.037 65.033L272.214 54.963ZM160.598 17.063H180.728L184.269 34.863C179.752 34.3733 175.212 34.1283 170.669 34.129C166.078 34.129 161.547 34.376 157.069 34.82L160.598 17.063ZM69.18 54.955L84.301 65.024C77.2575 70.7959 70.8045 77.2529 65.037 84.3L54.964 69.12L69.18 54.955ZM69.12 286.37L54.955 272.154L65.024 257.033C70.796 264.078 77.2534 270.532 84.301 276.3L69.12 286.37ZM180.736 324.27L160.606 324.313L157.065 306.513C161.545 306.957 166.076 307.204 170.665 307.204C175.254 307.204 179.787 306.957 184.265 306.513L180.736 324.27ZM170.667 290.133C147.039 290.132 123.942 283.125 104.296 269.997C84.6508 256.87 69.3392 238.212 60.2977 216.382C51.2562 194.552 48.8909 170.532 53.501 147.358C58.1111 124.184 69.4894 102.898 86.1972 86.1904C102.905 69.4831 124.192 58.1055 147.366 53.4962C170.54 48.8869 194.56 51.253 216.39 60.2952C238.219 69.3374 256.877 84.6497 270.004 104.296C283.131 123.942 290.137 147.039 290.137 170.667C290.137 186.356 287.047 201.891 281.043 216.385C275.039 230.88 266.238 244.05 255.145 255.143C244.051 266.237 230.88 275.037 216.386 281.04C201.891 287.044 186.356 290.133 170.667 290.133V290.133ZM272.154 286.379L257.037 276.31C264.082 270.538 270.536 264.081 276.305 257.033L286.374 272.214L272.154 286.379Z" fill="#3131E0" fill-opacity="0.2"/>
<path id="incomplete wheel 1" d="M265.282 131.431C259.49 117.438 250.666 104.903 239.447 94.731C228.227 84.5586 214.89 77.0016 200.398 72.6044C185.906 68.2071 170.619 67.0792 155.638 69.3018C140.658 71.5244 126.357 77.0423 113.765 85.4577C101.174 93.8732 90.6063 104.977 82.8233 117.969C75.0403 130.96 70.236 145.517 68.7564 160.589C67.2768 175.661 69.1588 190.874 74.2668 205.131C79.3748 219.388 87.5816 232.335 98.296 243.038C99.9045 244.597 102.061 245.461 104.301 245.443C106.541 245.426 108.684 244.528 110.268 242.944C111.852 241.36 112.75 239.217 112.767 236.977C112.785 234.737 111.921 232.581 110.362 230.972C98.4182 219.042 90.2813 203.837 86.9808 187.281C83.6803 170.726 85.3645 153.563 91.8202 137.965C98.276 122.367 109.213 109.034 123.248 99.6529C137.283 90.2721 153.786 85.2649 170.667 85.2649C187.548 85.2649 204.051 90.2721 218.086 99.6529C232.121 109.034 243.058 122.367 249.514 137.965C255.97 153.563 257.654 170.726 254.353 187.281C251.053 203.837 242.916 219.042 230.972 230.972C230.156 231.759 229.505 232.7 229.057 233.742C228.609 234.783 228.373 235.903 228.362 237.037C228.352 238.17 228.568 239.294 228.997 240.344C229.426 241.393 230.06 242.346 230.861 243.148C231.663 243.95 232.616 244.583 233.665 245.012C234.714 245.442 235.839 245.657 236.972 245.647C238.106 245.637 239.226 245.401 240.267 244.953C241.308 244.505 242.25 243.854 243.037 243.038C257.368 228.721 267.131 210.476 271.091 190.609C275.051 170.743 273.029 150.148 265.282 131.431V131.431Z" fill="#3131E0" fill-opacity="0.2"/>
<path id="Path 2913" d="M170.667 136.533C163.916 136.533 157.317 138.535 151.704 142.285C146.091 146.036 141.716 151.367 139.132 157.604C136.549 163.841 135.873 170.704 137.19 177.325C138.507 183.946 141.757 190.028 146.531 194.801C151.304 199.575 157.386 202.826 164.007 204.143C170.628 205.46 177.491 204.784 183.728 202.201C189.965 199.618 195.296 195.243 199.047 189.63C202.798 184.017 204.8 177.418 204.8 170.667C204.8 166.185 203.917 161.746 202.202 157.605C200.487 153.463 197.973 149.7 194.803 146.531C191.633 143.361 187.871 140.847 183.729 139.131C179.588 137.416 175.149 136.533 170.667 136.533V136.533ZM170.667 187.733C167.292 187.732 163.992 186.731 161.186 184.855C158.38 182.98 156.193 180.314 154.901 177.195C153.61 174.077 153.272 170.645 153.931 167.335C154.59 164.024 156.216 160.983 158.603 158.597C160.99 156.21 164.031 154.585 167.341 153.927C170.652 153.268 174.083 153.607 177.202 154.898C180.32 156.19 182.986 158.378 184.861 161.184C186.736 163.991 187.737 167.291 187.737 170.666C187.737 172.908 187.295 175.127 186.438 177.198C185.58 179.269 184.322 181.15 182.737 182.735C181.152 184.32 179.27 185.577 177.199 186.435C175.128 187.292 172.908 187.733 170.667 187.733V187.733Z" fill="#3131E0" fill-opacity="0.2"/>
</g>
</g>
</g>
<defs>
<clipPath id="clip0">
<rect width="495.274" height="511.999" fill="white"/>
</clipPath>
</defs>
</svg>
