<svg xmlns="http://www.w3.org/2000/svg" width="495.274" height="511.999" viewBox="0 0 495.274 511.999">
  <defs>
    <style>
      .cls-1 {
        fill: rgba(49,49,224,0.2);
      }
    </style>
  </defs>
  <g id="full-cog" transform="translate(-3810 -780)">
    <g id="bottom-cog">
      <path id="incomplete-wheel-2" class="cls-1" d="M420.308,354.137a8.534,8.534,0,0,0-3.821,14.28,34.056,34.056,0,0,1,0,48.239,34.867,34.867,0,0,1-48.239,0,34.055,34.055,0,0,1,0-48.23,8.535,8.535,0,0,0-12.066-12.074,51.169,51.169,0,1,0,72.371-.007A8.533,8.533,0,0,0,420.308,354.137Z" transform="translate(3801.637 780)"/>
      <path id="Path_2915" data-name="Path 2915" class="cls-1" d="M499.312,422.955,477.45,398.319c.128-1.92.29-3.84.29-5.794s-.162-3.874-.29-5.794l21.8-24.568a17.009,17.009,0,0,0,2.091-19.9l-10.982-19.038a17.28,17.28,0,0,0-18.176-8.09l-32.179,6.6a86.2,86.2,0,0,0-10.1-5.743l-10.462-31.4a17.17,17.17,0,0,0-16.162-11.52H381.443a17.212,17.212,0,0,0-16.213,11.648L354.819,316a86.2,86.2,0,0,0-10.1,5.743l-32.3-6.622a17.321,17.321,0,0,0-18.116,8.218l-10.914,18.987a16.972,16.972,0,0,0,2.065,19.78l21.862,24.636c-.128,1.92-.29,3.84-.29,5.794s.162,3.874.29,5.794l-21.8,24.567a17.009,17.009,0,0,0-2.091,19.9l10.982,19.038a17.375,17.375,0,0,0,18.176,8.09l32.179-6.6a86.348,86.348,0,0,0,10.1,5.743l10.419,31.411A17.17,17.17,0,0,0,381.441,512h21.845A17.211,17.211,0,0,0,419.5,500.351l10.411-31.283a86.2,86.2,0,0,0,10.1-5.743l32.3,6.622a17.1,17.1,0,0,0,3.208.307,17.375,17.375,0,0,0,14.908-8.533l10.957-18.987A16.972,16.972,0,0,0,499.312,422.955ZM475.6,331.87,486.5,350.78l-13.21,14.891A85.025,85.025,0,0,0,456,335.89Zm-94.157-41.737,21.854-.043,6.246,18.85a85.8,85.8,0,0,0-34.347,0ZM298.207,350.8l10.948-18.935,19.575,4.011a85.351,85.351,0,0,0-17.306,29.8ZM309.1,453.2,298.2,434.295,311.433,419.4a85.025,85.025,0,0,0,17.3,29.781Zm94.182,41.728-21.854.043-6.246-18.816a85.8,85.8,0,0,0,34.347,0Zm16.009-39.7-.375.188a68.265,68.265,0,0,1-53.146,0l-.3-.145A68.248,68.248,0,0,1,365.5,329.8l.239-.119A68.266,68.266,0,0,1,419.3,455.236Zm56.277-2.031L456,449.194A85.351,85.351,0,0,0,473.3,419.4l13.218,14.874Z" transform="translate(3801.637 780)"/>
      <path id="Path_2916" data-name="Path 2916" class="cls-1" d="M392.363,401.067a8.448,8.448,0,0,0,7.85-11.776,9.858,9.858,0,0,0-1.792-2.816,8.935,8.935,0,0,0-12.117,0,9.857,9.857,0,0,0-1.792,2.816,8.551,8.551,0,0,0-.683,3.243,8.448,8.448,0,0,0,8.534,8.533Z" transform="translate(3801.637 780)"/>
    </g>
    <g id="top-cog">
      <path id="incomplete-wheel-1" class="cls-1" d="M273.645,131.431A102.4,102.4,0,1,0,106.659,243.038a8.533,8.533,0,0,0,12.066-12.066,85.333,85.333,0,1,1,120.61,0A8.533,8.533,0,1,0,251.4,243.038,102.4,102.4,0,0,0,273.645,131.431Z" transform="translate(3801.637 780)"/>
      <path id="Path_2912" data-name="Path 2912" class="cls-1" d="M306.842,284.262a16.837,16.837,0,0,0,2.091-21.5L295.2,242.082a135.434,135.434,0,0,0,16.512-39.74l24.269-4.821A17.067,17.067,0,0,0,349.7,180.736V160.6a17.067,17.067,0,0,0-13.653-16.734l-24.286-4.83a135.435,135.435,0,0,0-16.512-39.74l13.7-20.625a16.827,16.827,0,0,0-2.074-21.5L292.583,42.854a16.837,16.837,0,0,0-21.5-2.091L250.4,54.493a135.435,135.435,0,0,0-39.74-16.512l-4.821-24.269A17.068,17.068,0,0,0,189.1,0H168.96a17.066,17.066,0,0,0-16.734,13.7L147.4,37.982a135.435,135.435,0,0,0-39.74,16.512L87.032,40.8a16.827,16.827,0,0,0-21.5,2.031L51.218,57.114a16.837,16.837,0,0,0-2.091,21.5l13.73,20.676a135.435,135.435,0,0,0-16.512,39.74l-24.269,4.821A17.067,17.067,0,0,0,8.363,160.6v20.139a17.066,17.066,0,0,0,13.7,16.734l24.286,4.83a135.435,135.435,0,0,0,16.512,39.74l-13.7,20.625a16.827,16.827,0,0,0,2.031,21.495l14.285,14.293a16.845,16.845,0,0,0,21.5,2.091l20.676-13.73a135.434,135.434,0,0,0,39.74,16.512l4.821,24.269a17.067,17.067,0,0,0,16.742,13.739H189.1a17.067,17.067,0,0,0,16.734-13.653l4.83-24.286a135.435,135.435,0,0,0,39.74-16.512l20.625,13.7a17.066,17.066,0,0,0,9.574,2.97,16.845,16.845,0,0,0,11.947-5Zm8.03-127.2L332.63,160.6l.043,20.13-17.8,3.541c.444-4.48.691-9.011.691-13.6S315.316,161.545,314.872,157.065Zm-271.684,27.2L25.43,180.736v-20.13l17.758-3.593c-.444,4.531-.691,9.062-.691,13.653S42.744,179.789,43.188,184.269ZM280.577,54.963,294.742,69.18,284.673,84.3A137.559,137.559,0,0,0,265.4,65.033Zm-111.616-37.9h20.13l3.541,17.8a125.988,125.988,0,0,0-13.6-.734c-4.591,0-9.122.247-13.6.691ZM77.543,54.955,92.664,65.024A137.559,137.559,0,0,0,73.4,84.3L63.327,69.12Zm-.06,231.415L63.318,272.154l10.069-15.121A137.559,137.559,0,0,0,92.664,276.3Zm111.616,37.9-20.13.043-3.541-17.8c4.48.444,9.011.691,13.6.691s9.122-.247,13.6-.691ZM179.03,290.133A119.466,119.466,0,1,1,298.5,170.667,119.467,119.467,0,0,1,179.03,290.133Zm101.487-3.754L265.4,276.31a137.559,137.559,0,0,0,19.268-19.277l10.069,15.181Z" transform="translate(3801.637 780)"/>
      <path id="Path_2913" data-name="Path 2913" class="cls-1" d="M179.03,136.533a34.133,34.133,0,1,0,34.133,34.134A34.133,34.133,0,0,0,179.03,136.533Zm0,51.2A17.067,17.067,0,1,1,196.1,170.666,17.067,17.067,0,0,1,179.03,187.733Z" transform="translate(3801.637 780)"/>
    </g>
  </g>
</svg>
