<svg xmlns="http://www.w3.org/2000/svg" width="512" height="513.371" viewBox="0 0 512 513.371">
  <defs>
    <style>
      .cls-1 {
        fill: #117db6;
      }

      .cls-2 {
        fill: #5789d6;
      }

      .cls-3 {
        fill: #18ffff;
      }

      .cls-4 {
        fill: #178c7a;
      }

      .cls-5 {
        fill: #11263f;
      }
    </style>
  </defs>
  <g id="medical-report" transform="translate(-1 -0.834)">
    <g id="Group_18" data-name="Group 18" transform="translate(9.258 10.463)">
      <g id="Group_10" data-name="Group 10" transform="translate(198.194)">
        <path id="Path_97" data-name="Path 97" class="cls-1" d="M125.1,51.548V68.065H92.064V51.548a16.516,16.516,0,1,0-33.032,0V68.065H26V51.548a49.548,49.548,0,0,1,99.1,0Z" transform="translate(-26 -2)"/>
      </g>
      <g id="Group_11" data-name="Group 11" transform="translate(66.065 66.065)">
        <path id="Path_98" data-name="Path 98" class="cls-1" d="M365.1,439.419H18.258A8.261,8.261,0,0,1,10,431.161V18.258A8.261,8.261,0,0,1,18.258,10h355.1V431.161A8.261,8.261,0,0,1,365.1,439.419Z" transform="translate(-10 -10)"/>
      </g>
      <g id="Group_12" data-name="Group 12" transform="translate(99.097 99.097)">
        <path id="Path_99" data-name="Path 99" class="cls-2" d="M14,14H311.29V377.355H14Z" transform="translate(-14 -14)"/>
      </g>
      <g id="Group_13" data-name="Group 13" transform="translate(280.774 330.323)">
        <path id="Path_100" data-name="Path 100" class="cls-3" d="M118.581,54.387v70.194H36V42h82.581Z" transform="translate(-36 -42)"/>
      </g>
      <g id="Group_14" data-name="Group 14" transform="translate(313.806 231.226)">
        <circle id="Ellipse_9" data-name="Ellipse 9" class="cls-3" cx="16.516" cy="16.516" r="16.516"/>
      </g>
      <g id="Group_15" data-name="Group 15" transform="translate(0 148.645)">
        <path id="Path_101" data-name="Path 101" class="cls-4" d="M226.372,119.1a73.759,73.759,0,0,1-15.277,22.132L117.613,234.71,101.1,218.194,68.065,185.161,24.132,141.228A75.432,75.432,0,0,1,2,87.8v-.248A74.469,74.469,0,0,1,18.434,40.81,55.119,55.119,0,0,1,61.623,20a56.215,56.215,0,0,1,6.441.413,54.89,54.89,0,0,1,32.7,15.773l.33.33,16.516,16.516,16.846-16.846a55.26,55.26,0,0,1,82.333,4.625,74.469,74.469,0,0,1,16.434,46.741V87.8a73.929,73.929,0,0,1-6.854,31.3Z" transform="translate(-2 -20)"/>
      </g>
      <g id="Group_16" data-name="Group 16" transform="translate(330.323 0)">
        <path id="Path_102" data-name="Path 102" class="cls-2" d="M207.161,26.774V89.205A115.756,115.756,0,0,1,141.1,193.835a124.161,124.161,0,0,1-16.516,6.359,124.157,124.157,0,0,1-16.516-6.359,115.5,115.5,0,0,1-65.4-92.821A93.479,93.479,0,0,1,42,89.205V26.774a146.512,146.512,0,0,0,39.8-5.45A149.868,149.868,0,0,0,118.717,5.551L124.581,2l5.863,3.551A149.525,149.525,0,0,0,207.161,26.774Z" transform="translate(-42 -2)"/>
      </g>
      <g id="Group_17" data-name="Group 17" transform="translate(363.355 49.548)">
        <path id="Path_103" data-name="Path 103" class="cls-3" d="M145.1,49.29V65.806a8.282,8.282,0,0,1-8.258,8.258H112.065V98.839a8.282,8.282,0,0,1-8.258,8.258H87.29a8.282,8.282,0,0,1-8.258-8.258V74.065H54.258A8.282,8.282,0,0,1,46,65.806V49.29a8.282,8.282,0,0,1,8.258-8.258H79.032V16.258A8.282,8.282,0,0,1,87.29,8h16.516a8.282,8.282,0,0,1,8.258,8.258V41.032h24.774A8.282,8.282,0,0,1,145.1,49.29Z" transform="translate(-46 -8)"/>
      </g>
    </g>
    <g id="Group_19" data-name="Group 19" transform="translate(1 0.834)">
      <path id="Path_104" data-name="Path 104" class="cls-5" d="M78.032,23.516V40.032H61.516A16.533,16.533,0,0,0,45,56.548V73.065A16.533,16.533,0,0,0,61.516,89.581H78.032V106.1a16.533,16.533,0,0,0,16.516,16.516h16.516A16.533,16.533,0,0,0,127.581,106.1V89.581H144.1a16.533,16.533,0,0,0,16.516-16.516V56.548A16.533,16.533,0,0,0,144.1,40.032H127.581V23.516A16.533,16.533,0,0,0,111.064,7H94.548A16.533,16.533,0,0,0,78.032,23.516ZM144.1,56.54V73.065H111.064V106.1H94.548V73.065H61.516V56.548H94.548V23.516h16.516V56.548Z" transform="translate(318.355 43.919)"/>
      <path id="Path_105" data-name="Path 105" class="cls-5" d="M504.742,26.979A140.754,140.754,0,0,1,432.3,6.912L422.161.834,412.02,6.912a140.754,140.754,0,0,1-72.44,20.067h-8.258v41.29H314.806V60.011a57.806,57.806,0,0,0-115.613,0v8.258H83.581A16.533,16.533,0,0,0,67.065,84.785v66.164a63.21,63.21,0,0,0-47.847,23.783,83.818,83.818,0,0,0,6.334,111.443l41.513,41.513v170A16.533,16.533,0,0,0,83.581,514.2H430.419a16.533,16.533,0,0,0,16.516-16.516V207.335A123.176,123.176,0,0,0,513,97.66V26.979ZM397.387,312.873l-17.466,19.654H281.774v99.1h99.1V356.311l16.516-18.581V464.656H116.613v-87.42l8.258,8.258,99.32-99.32a83.888,83.888,0,0,0,14.658-19.712h77.477a24.774,24.774,0,1,0,0-16.516H245.472a84.91,84.91,0,0,0,3.27-23.279,83.435,83.435,0,0,0-18.217-51.935,63.625,63.625,0,0,0-94.679-5.244l-10.975,10.975-8.258-8.258V117.818h216.32a122.907,122.907,0,0,0,64.454,89.517Zm-57.451,89.493,24.419-27.475v40.217H298.29V349.044h66.065v.991L339.226,378.3l-18.581-18.581L308.968,371.4ZM331.323,258.2a8.258,8.258,0,1,1,8.258,8.258A8.266,8.266,0,0,1,331.323,258.2ZM215.71,60.011a41.29,41.29,0,1,1,82.581,0v8.258H281.774V60.011a24.774,24.774,0,0,0-49.548,0v8.258H215.71Zm49.548,8.258H248.742V60.011a8.258,8.258,0,1,1,16.516,0Zm66.065,16.516V97.668c0,1.222.107,2.42.149,3.634H100.1V159.05a62.592,62.592,0,0,0-16.516-6.441V84.785ZM17.516,226.667a66.845,66.845,0,0,1,14.609-41.621,47.1,47.1,0,0,1,70.094-3.881l22.652,22.652,22.652-22.652a47.1,47.1,0,0,1,70.094,3.881,67.048,67.048,0,0,1,10.5,64.9H152.8l-18.135,36.286-25.608-76.8-22.809,57.03H67.065v16.516H97.429l10.223-25.55,23.94,71.845,31.414-62.811h56.287a68.476,68.476,0,0,1-6.78,8.035l-87.643,87.643L37.228,274.5A67.012,67.012,0,0,1,17.516,226.667Zm412.9,271.021H83.581V344.2L100.1,360.72V481.173H413.9V214.544c1.957.694,3.881,1.429,5.888,2.023l2.37.71,2.37-.71c2.007-.6,3.931-1.338,5.888-2.023ZM496.484,97.668A106.933,106.933,0,0,1,422.161,200.01,106.933,106.933,0,0,1,347.839,97.668V43.28a157.376,157.376,0,0,0,72.688-22.2l1.635-.991,1.635.983A157.259,157.259,0,0,0,496.484,43.28Z" transform="translate(-1 -0.834)"/>
      <path id="Path_106" data-name="Path 106" class="cls-5" d="M31,51H47.516V67.516H31Z" transform="translate(216.742 363.274)"/>
      <path id="Path_107" data-name="Path 107" class="cls-5" d="M27,51H43.516V67.516H27Z" transform="translate(187.71 363.274)"/>
      <path id="Path_108" data-name="Path 108" class="cls-5" d="M23,51H39.516V67.516H23Z" transform="translate(158.677 363.274)"/>
      <path id="Path_109" data-name="Path 109" class="cls-5" d="M33,25H82.548V41.516H33Z" transform="translate(231.258 174.564)"/>
      <path id="Path_110" data-name="Path 110" class="cls-5" d="M33,21H82.548V37.516H33Z" transform="translate(231.258 145.532)"/>
      <path id="Path_111" data-name="Path 111" class="cls-5" d="M33,17H82.548V33.516H33Z" transform="translate(231.258 116.5)"/>
    </g>
  </g>
</svg>
