<svg xmlns="http://www.w3.org/2000/svg" id="scientist" width="496" height="496" viewBox="0 0 496 496"><defs><style>.cls-1{fill:#18ffff}.cls-2{fill:#178c7a}.cls-3{fill:#117db6}.cls-4{fill:#5789d6}.cls-5{fill:#699ce6}.cls-6{fill:#70b48f}.cls-7{fill:#11263f}</style></defs><path id="Path_60" d="M420.4,476.4,296,352l56-56L476.4,420.4a39.6,39.6,0,1,1-56,56Zm0,0" class="cls-1" data-name="Path 60"/><path id="Path_61" d="M448.4,488a39.177,39.177,0,0,0,18.707-4.895A39.154,39.154,0,0,0,472,464.4a39.566,39.566,0,0,0-11.6-28L336,312l-40,40L420.4,476.4a39.58,39.58,0,0,0,28,11.6Zm0,0" class="cls-2" data-name="Path 61"/><path id="Path_62" d="M288,312l24,24,24-24-24-24" class="cls-3" data-name="Path 62"/><path id="Path_63" d="M336,216A120,120,0,1,1,216,96,120,120,0,0,1,336,216Zm0,0" class="cls-4" data-name="Path 63"/><path id="Path_64" d="M304,216a88,88,0,1,1-88-88A88,88,0,0,1,304,216Zm0,0" class="cls-1" data-name="Path 64"/><path id="Path_65" d="M240,248a24,24,0,1,1-24-24A24,24,0,0,1,240,248Zm0,0" class="cls-4" data-name="Path 65"/><path id="Path_66" d="M488,32A24,24,0,1,1,464,8,24,24,0,0,1,488,32Zm0,0" class="cls-3" data-name="Path 66"/><path id="Path_67" d="M440,160a24,24,0,1,1-24-24A24,24,0,0,1,440,160Zm0,0" class="cls-5" data-name="Path 67"/><path id="Path_68" d="M352,64a24,24,0,1,1-24-24A24,24,0,0,1,352,64Zm0,0" class="cls-2" data-name="Path 68"/><path id="Path_69" d="M168,32A24,24,0,1,1,144,8,24,24,0,0,1,168,32Zm0,0" class="cls-6" data-name="Path 69"/><path id="Path_70" d="M56,176a24,24,0,1,1-24-24A24,24,0,0,1,56,176Zm0,0" class="cls-1" data-name="Path 70"/><path id="Path_71" d="M56,32A24,24,0,1,1,32,8,24,24,0,0,1,56,32Zm0,0" class="cls-4" data-name="Path 71"/><path id="Path_72" d="M216,344A128,128,0,1,1,344,216,128.152,128.152,0,0,1,216,344Zm0-240A112,112,0,1,0,328,216,112.121,112.121,0,0,0,216,104Zm0,0" class="cls-7" data-name="Path 72"/><path id="Path_73" d="M216,312a96,96,0,1,1,96-96A96.1,96.1,0,0,1,216,312Zm0-176a80,80,0,1,0,80,80A80.089,80.089,0,0,0,216,136Zm0,0" class="cls-7" data-name="Path 73"/><path id="Path_74" d="M312,344a7.984,7.984,0,0,1-5.656-2.344l-24-24,11.313-11.312L312,324.688,324.688,312l-18.344-18.344,11.313-11.312,24,24a7.99,7.99,0,0,1,0,11.313l-24,24A7.984,7.984,0,0,1,312,344Zm0,0" class="cls-7" data-name="Path 74"/><path id="Path_75" d="M314.336,370.344l56-56,11.316,11.313-56,56Zm0,0" class="cls-7" data-name="Path 75"/><path id="Path_76" d="M448.4,496a47.32,47.32,0,0,1-33.664-13.945l-124.4-124.4a8.007,8.007,0,0,1,.008-11.312l56-56a7.99,7.99,0,0,1,11.313,0l124.4,124.4A47.6,47.6,0,0,1,448.4,496ZM307.312,352,426.054,470.742a31.6,31.6,0,1,0,44.688-44.688L352,307.312Zm0,0" class="cls-7" data-name="Path 76"/><path id="Path_77" d="M440,440h16v16H440Zm0,0" class="cls-7" data-name="Path 77"/><path id="Path_78" d="M394.336,450.344l56-56,11.316,11.313-56,56Zm0,0" class="cls-7" data-name="Path 78"/><path id="Path_79" d="M216,280a32,32,0,1,1,32-32A32.032,32.032,0,0,1,216,280Zm0-48a16,16,0,1,0,16,16A16.016,16.016,0,0,0,216,232Zm0,0" class="cls-7" data-name="Path 79"/><path id="Path_80" d="M416,192a32,32,0,1,1,32-32A32.032,32.032,0,0,1,416,192Zm0-48a16,16,0,1,0,16,16A16.016,16.016,0,0,0,416,144Zm0,0" class="cls-7" data-name="Path 80"/><path id="Path_81" d="M464,64a32,32,0,1,1,32-32A32.032,32.032,0,0,1,464,64Zm0-48a16,16,0,1,0,16,16A16.016,16.016,0,0,0,464,16Zm0,0" class="cls-7" data-name="Path 81"/><path id="Path_82" d="M328,96a32,32,0,1,1,32-32A32.032,32.032,0,0,1,328,96Zm0-48a16,16,0,1,0,16,16A16.016,16.016,0,0,0,328,48Zm0,0" class="cls-7" data-name="Path 82"/><path id="Path_83" d="M32,208a32,32,0,1,1,32-32A32.032,32.032,0,0,1,32,208Zm0-48a16,16,0,1,0,16,16A16.016,16.016,0,0,0,32,160Zm0,0" class="cls-7" data-name="Path 83"/><path id="Path_84" d="M32,64A32,32,0,1,1,64,32,32.032,32.032,0,0,1,32,64Zm0-48A16,16,0,1,0,48,32,16.016,16.016,0,0,0,32,16Zm0,0" class="cls-7" data-name="Path 84"/><path id="Path_85" d="M144,64a32,32,0,1,1,32-32A32.032,32.032,0,0,1,144,64Zm0-48a16,16,0,1,0,16,16A16.016,16.016,0,0,0,144,16Zm0,0" class="cls-7" data-name="Path 85"/><path id="Path_86" d="M124.609,225.133l6.816-14.484,63.98,30.109-6.816,14.484Zm0,0" class="cls-7" data-name="Path 86"/><path id="Path_87" d="M52.578,191.234l6.816-14.484,40.68,19.141-6.816,14.484Zm0,0" class="cls-7" data-name="Path 87"/><path id="Path_88" d="M24,56H40v96H24Zm0,0" class="cls-7" data-name="Path 88"/><path id="Path_89" d="M41.664,155.137,121.648,51.129l12.676,9.75L54.34,164.887Zm0,0" class="cls-7" data-name="Path 89"/><path id="Path_90" d="M332.207,197.719l64.5-29,6.563,14.59-64.5,29.008Zm0,0" class="cls-7" data-name="Path 90"/><path id="Path_91" d="M236.7,240.7l63.949-28.758,6.563,14.594-63.949,28.758Zm0,0" class="cls-7" data-name="Path 91"/><path id="Path_92" d="M416.6,133.043l31.977-80.008,14.855,5.938-31.973,80.012Zm0,0" class="cls-7" data-name="Path 92"/><path id="Path_93" d="M337.988,85.273l12.035-10.531,56,64-12.035,10.531Zm0,0" class="cls-7" data-name="Path 93"/><path id="Path_94" d="M167.051,47.934l1.871-15.891,136,15.992L303.059,63.93Zm0,0" class="cls-7" data-name="Path 94"/></svg>