<svg height="496pt" viewBox="0 0 496 496" width="496pt" xmlns="http://www.w3.org/2000/svg"><path d="m420.398438 476.398438-124.398438-124.398438 56-56 124.398438 124.398438c7.425781 7.425781 11.601562 17.496093 11.601562 28 0 21.875-17.726562 39.601562-39.601562 39.601562-10.503907 0-20.566407-4.167969-28-11.601562zm0 0" fill="#5789d6"/><path d="m448.398438 488c6.800781 0 13.113281-1.871094 18.707031-4.894531 3.023437-5.59375 4.894531-11.898438 4.894531-18.707031 0-10.503907-4.167969-20.574219-11.601562-28l-124.398438-124.398438-40 40 124.398438 124.398438c7.433593 7.433593 17.496093 11.601562 28 11.601562zm0 0" fill="#699ce6"/><path d="m288 312 24 24 24-24-24-24" fill="#bc8f6f"/><path d="m336 216c0 66.273438-53.726562 120-120 120s-120-53.726562-120-120 53.726562-120 120-120 120 53.726562 120 120zm0 0" fill="#5b6673"/><path d="m304 216c0 48.601562-39.398438 88-88 88s-88-39.398438-88-88 39.398438-88 88-88 88 39.398438 88 88zm0 0" fill="#94cce7"/><path d="m240 248c0 13.253906-10.746094 24-24 24s-24-10.746094-24-24 10.746094-24 24-24 24 10.746094 24 24zm0 0" fill="#699ce6"/><path d="m488 32c0 13.253906-10.746094 24-24 24s-24-10.746094-24-24 10.746094-24 24-24 24 10.746094 24 24zm0 0" fill="#8d5655"/><path d="m440 160c0 13.253906-10.746094 24-24 24s-24-10.746094-24-24 10.746094-24 24-24 24 10.746094 24 24zm0 0" fill="#dcb29c"/><path d="m352 64c0 13.253906-10.746094 24-24 24s-24-10.746094-24-24 10.746094-24 24-24 24 10.746094 24 24zm0 0" fill="#df9363"/><path d="m168 32c0 13.253906-10.746094 24-24 24s-24-10.746094-24-24 10.746094-24 24-24 24 10.746094 24 24zm0 0" fill="#70b48f"/><path d="m56 176c0 13.253906-10.746094 24-24 24s-24-10.746094-24-24 10.746094-24 24-24 24 10.746094 24 24zm0 0" fill="#f8cf6a"/><path d="m56 32c0 13.253906-10.746094 24-24 24s-24-10.746094-24-24 10.746094-24 24-24 24 10.746094 24 24zm0 0" fill="#dc6068"/><path d="m216 344c-70.574219 0-128-57.425781-128-128s57.425781-128 128-128 128 57.425781 128 128-57.425781 128-128 128zm0-240c-61.761719 0-112 50.238281-112 112s50.238281 112 112 112 112-50.238281 112-112-50.238281-112-112-112zm0 0"/><path d="m216 312c-52.9375 0-96-43.0625-96-96s43.0625-96 96-96 96 43.0625 96 96-43.0625 96-96 96zm0-176c-44.113281 0-80 35.886719-80 80s35.886719 80 80 80 80-35.886719 80-80-35.886719-80-80-80zm0 0"/><path d="m312 344c-2.046875 0-4.097656-.785156-5.65625-2.34375l-24-24 11.3125-11.3125 18.34375 18.34375 12.6875-12.6875-18.34375-18.34375 11.3125-11.3125 24 24c3.128906 3.128906 3.128906 8.183594 0 11.3125l-24 24c-1.558594 1.558594-3.609375 2.34375-5.65625 2.34375zm0 0"/><path d="m314.335938 370.34375 55.996093-55.996094 11.316407 11.3125-55.996094 55.996094zm0 0"/><path d="m448.398438 496c-12.710938 0-24.664063-4.953125-33.664063-13.945312l-124.398437-124.398438c-1.496094-1.496094-2.335938-3.527344-2.335938-5.65625s.839844-4.160156 2.34375-5.65625l56-56c3.128906-3.128906 8.183594-3.128906 11.3125 0l124.398438 124.398438c8.992187 8.992187 13.945312 20.945312 13.945312 33.65625 0 26.25-21.351562 47.601562-47.601562 47.601562zm-141.085938-144 118.742188 118.742188c5.96875 5.96875 13.90625 9.257812 22.34375 9.257812 17.425781 0 31.601562-14.175781 31.601562-31.601562 0-8.4375-3.289062-16.375-9.257812-22.34375l-118.742188-118.742188zm0 0"/><path d="m440 440h16v16h-16zm0 0"/><path d="m394.335938 450.34375 55.996093-55.996094 11.316407 11.3125-56 55.996094zm0 0"/><path d="m216 280c-17.648438 0-32-14.351562-32-32s14.351562-32 32-32 32 14.351562 32 32-14.351562 32-32 32zm0-48c-8.824219 0-16 7.175781-16 16s7.175781 16 16 16 16-7.175781 16-16-7.175781-16-16-16zm0 0"/><path d="m416 192c-17.648438 0-32-14.351562-32-32s14.351562-32 32-32 32 14.351562 32 32-14.351562 32-32 32zm0-48c-8.824219 0-16 7.175781-16 16s7.175781 16 16 16 16-7.175781 16-16-7.175781-16-16-16zm0 0"/><path d="m464 64c-17.648438 0-32-14.351562-32-32s14.351562-32 32-32 32 14.351562 32 32-14.351562 32-32 32zm0-48c-8.824219 0-16 7.175781-16 16s7.175781 16 16 16 16-7.175781 16-16-7.175781-16-16-16zm0 0"/><path d="m328 96c-17.648438 0-32-14.351562-32-32s14.351562-32 32-32 32 14.351562 32 32-14.351562 32-32 32zm0-48c-8.824219 0-16 7.175781-16 16s7.175781 16 16 16 16-7.175781 16-16-7.175781-16-16-16zm0 0"/><path d="m32 208c-17.648438 0-32-14.351562-32-32s14.351562-32 32-32 32 14.351562 32 32-14.351562 32-32 32zm0-48c-8.824219 0-16 7.175781-16 16s7.175781 16 16 16 16-7.175781 16-16-7.175781-16-16-16zm0 0"/><path d="m32 64c-17.648438 0-32-14.351562-32-32s14.351562-32 32-32 32 14.351562 32 32-14.351562 32-32 32zm0-48c-8.824219 0-16 7.175781-16 16s7.175781 16 16 16 16-7.175781 16-16-7.175781-16-16-16zm0 0"/><path d="m144 64c-17.648438 0-32-14.351562-32-32s14.351562-32 32-32 32 14.351562 32 32-14.351562 32-32 32zm0-48c-8.824219 0-16 7.175781-16 16s7.175781 16 16 16 16-7.175781 16-16-7.175781-16-16-16zm0 0"/><path d="m124.609375 225.132812 6.816406-14.484374 63.980469 30.109374-6.816406 14.484376zm0 0"/><path d="m52.578125 191.234375 6.816406-14.484375 40.679688 19.140625-6.816407 14.484375zm0 0"/><path d="m24 56h16v96h-16zm0 0"/><path d="m41.664062 155.136719 79.984376-104.007813 12.675781 9.75-79.984375 104.007813zm0 0"/><path d="m332.207031 197.71875 64.503907-29.003906 6.5625 14.589844-64.503907 29.007812zm0 0"/><path d="m236.703125 240.695312 63.949219-28.757812 6.5625 14.59375-63.949219 28.757812zm0 0"/><path d="m416.601562 133.042969 31.976563-80.007813 14.855469 5.9375-31.972656 80.011719zm0 0"/><path d="m337.988281 85.273438 12.035157-10.53125 56 64-12.035157 10.53125zm0 0"/><path d="m167.050781 47.933594 1.871094-15.890625 136.003906 15.992187-1.867187 15.894532zm0 0"/></svg>