<svg xmlns="http://www.w3.org/2000/svg" xmlns:xlink="http://www.w3.org/1999/xlink" id="Capa_1" x="0" y="0" enable-background="new 0 0 471.771 471.771" version="1.1" viewBox="0 0 471.771 471.771" xml:space="preserve"><path fill="#4DCFE0" d="M333.061,305.633c18.286,0,33.437,15.151,33.437,33.437s-15.151,33.437-33.437,33.437	c-18.286,0-33.437-15.151-33.437-33.437C299.624,320.784,314.775,305.633,333.061,305.633z"/><path fill="#3A2C51" d="M333.061,289.959c-21.42,0-39.706,14.106-46.498,33.437h-40.751v-73.143	c63.739-6.792,113.894-60.604,113.894-126.433V38.139c0-8.882-6.792-15.673-15.673-15.673h-36.571v-6.792	C307.461,6.792,300.669,0,291.788,0c-8.882,0-15.673,6.792-15.673,15.673v43.886c0,8.882,6.792,15.673,15.673,15.673	c8.882,0,15.673-6.792,15.673-15.673v-5.747h20.898v70.008c0,52.767-42.841,95.608-95.608,95.608h-7.314	c-52.767,0-95.608-42.841-95.608-95.608V53.812h22.465v5.747c0,8.882,6.792,15.673,15.673,15.673s15.673-6.792,15.673-15.673V15.673	C183.641,6.792,176.849,0,167.967,0s-15.673,6.792-15.673,15.673v6.792h-38.139c-8.882,0-15.673,6.792-15.673,15.673v85.682	c0,66.351,51.2,120.686,115.984,126.433v73.143h-50.678c-19.853,0-38.139,7.837-52.245,21.42	C97.437,358.4,89.6,377.208,89.6,397.584c0,40.751,33.437,74.188,74.71,74.188h7.314c40.751,0,74.188-33.437,74.188-74.188v-42.841	h40.751c6.792,19.331,25.078,33.437,46.498,33.437c27.167,0,49.11-21.943,49.11-49.11S360.229,289.959,333.061,289.959z M214.465,397.584c0,23.51-19.331,42.841-42.841,42.841h-7.314c-24.555,0-43.363-18.808-43.363-42.841	c0-11.494,4.18-22.465,12.539-30.302c8.359-8.359,18.808-12.539,30.302-12.539h50.678V397.584z M333.061,356.833	c-9.404,0-17.763-8.359-17.763-17.763c0-9.404,8.359-17.763,17.763-17.763c9.404,0,17.763,8.359,17.763,17.763	S342.465,356.833,333.061,356.833z"/></svg>