<svg xmlns="http://www.w3.org/2000/svg" width="302.571" height="481.772" viewBox="0 0 302.571 481.772"><defs><style>.cls-1{fill:#000421}.cls-2{fill:#699ce6;stroke:#0d3e76;stroke-width:10px}</style></defs><g id="stethoscope" transform="translate(-84.6 5)"><path id="Path_95" d="M333.061,305.633a33.437,33.437,0,1,1-33.437,33.437A33.671,33.671,0,0,1,333.061,305.633Z" class="cls-1" data-name="Path 95"/><path id="Path_96" d="M333.061,289.959c-21.42,0-39.706,14.106-46.5,33.437H245.812V250.253c63.739-6.792,113.894-60.6,113.894-126.433V38.139a15.393,15.393,0,0,0-15.673-15.673H307.462V15.674a15.673,15.673,0,1,0-31.347,0V59.559a15.673,15.673,0,0,0,31.346,0V53.812h20.9V123.82a95.654,95.654,0,0,1-95.608,95.608h-7.314a95.654,95.654,0,0,1-95.608-95.608V53.812h22.465v5.747a15.673,15.673,0,0,0,31.346,0V15.673a15.673,15.673,0,0,0-31.346,0v6.792H114.155A15.393,15.393,0,0,0,98.482,38.138V123.82c0,66.351,51.2,120.686,115.984,126.433V323.4H163.788a74.829,74.829,0,0,0-52.245,21.42C97.437,358.4,89.6,377.208,89.6,397.584c0,40.751,33.437,74.188,74.71,74.188h7.314a74.474,74.474,0,0,0,74.188-74.188V354.743h40.751c6.792,19.331,25.078,33.437,46.5,33.437a49.111,49.111,0,0,0,0-98.221Zm-118.6,107.625a43.035,43.035,0,0,1-42.841,42.841H164.31c-24.555,0-43.363-18.808-43.363-42.841,0-11.494,4.18-22.465,12.539-30.3a41.848,41.848,0,0,1,30.3-12.539h50.678v42.841Zm118.6-40.751c-9.4,0-17.763-8.359-17.763-17.763s8.359-17.763,17.763-17.763,17.763,8.359,17.763,17.763S342.465,356.833,333.061,356.833Z" class="cls-2" data-name="Path 96"/></g></svg>