<svg height="512" viewBox="0 0 64 64" width="512" xmlns="http://www.w3.org/2000/svg"><g id="Ai-2" data-name="Ai"><g fill="#57a4ff"><circle cx="24" cy="5" r="3"/><circle cx="11" cy="18" r="3"/><circle cx="53" cy="18" r="3"/><circle cx="40" cy="59" r="3"/><circle cx="53" cy="46" r="3"/><circle cx="11" cy="46" r="3"/></g><path d="m53 42a3.9 3.9 0 0 0 -.532.054l-3.761-3.761a1 1 0 0 0 -.707-.293h-15v-12h15a1 1 0 0 0 .707-.293l3.761-3.761a3.9 3.9 0 0 0 .532.054 4.05 4.05 0 1 0 -2.506-.908l-2.908 2.908h-10.172l3.293-3.293a1 1 0 0 0 .293-.707v-5a1.026 1.026 0 0 0 -.027-.134 4 4 0 1 0 -1.946 0 1.026 1.026 0 0 0 -.027.134v4.586l-4.414 4.414h-4.086l-5.5-7.333v-7.667a1.026 1.026 0 0 0 -.027-.134 4 4 0 1 0 -1.946 0 1.026 1.026 0 0 0 -.027.134v8a1 1 0 0 0 .2.6l4.8 6.4h-11.586l-2.908-2.908a3.977 3.977 0 1 0 -2.506.908 3.9 3.9 0 0 0 .532-.054l3.761 3.761a1 1 0 0 0 .707.293h15v12h-9v-3a1 1 0 0 0 -2 0v3h-4a1 1 0 0 0 -.707.293l-3.761 3.761a3.9 3.9 0 0 0 -.532-.054 4.05 4.05 0 1 0 2.506.908l2.908-2.908h10.172l-3.293 3.293a1 1 0 0 0 -.293.707v5a1.026 1.026 0 0 0 .027.134 4 4 0 1 0 1.946 0 1.026 1.026 0 0 0 .027-.134v-4.586l4.414-4.414h4.086l5.5 7.333v7.667a1.026 1.026 0 0 0 .027.134 4 4 0 1 0 1.946 0 1.026 1.026 0 0 0 .027-.134v-8a1 1 0 0 0 -.2-.6l-4.8-6.4h11.586l2.908 2.908a3.977 3.977 0 1 0 2.506-.908zm0-26a2 2 0 1 1 -2 2 2 2 0 0 1 2-2zm-15-5a2 2 0 1 1 2 2 2 2 0 0 1 -2-2zm-16-6a2 2 0 1 1 2 2 2 2 0 0 1 -2-2zm-13 13a2 2 0 1 1 2 2 2 2 0 0 1 -2-2zm2 30a2 2 0 1 1 2-2 2 2 0 0 1 -2 2zm15 5a2 2 0 1 1 -2-2 2 2 0 0 1 2 2zm16 6a2 2 0 1 1 -2-2 2 2 0 0 1 2 2zm11-11a2 2 0 1 1 2-2 2 2 0 0 1 -2 2z" fill="#004fac"/><path d="m21 33a1 1 0 0 0 1-1v-1a1 1 0 0 0 -2 0v1a1 1 0 0 0 1 1z" fill="#004fac"/><path d="m11 13a1 1 0 0 0 1-1v-2a1 1 0 0 0 -2 0v2a1 1 0 0 0 1 1z" fill="#004fac"/><path d="m54 51a1 1 0 0 0 -1 1v1a1 1 0 0 0 2 0v-1a1 1 0 0 0 -1-1z" fill="#004fac"/></g></svg>