<svg xmlns="http://www.w3.org/2000/svg" width="385.214" height="351.103" viewBox="0 0 385.214 351.103">
  <defs>
    <style>
      .cls-1 {
        fill: #18ffff;
      }
    </style>
  </defs>
  <path id="Icon_simple-atom" data-name="Icon simple-atom" class="cls-1" d="M328.873,129.4c-35.039-14.927-82.116-24.558-132.42-27.206-8.025-.482-15.842-.642-23.274-.642,37.206-45.424,77.076-75.921,103.32-76.884a21.949,21.949,0,0,1,13.049,3.146c11.332,7.351,14.526,28.378,8.748,57.623a7.56,7.56,0,0,0,5.778,8.667,7.335,7.335,0,0,0,8.667-5.778c7.223-36.6,1.926-61.732-15.088-72.839-6.1-3.981-13.483-5.859-21.669-5.554-32.9,1.236-79.291,36.917-121.826,91.811a414.545,414.545,0,0,0-51.876,4.607c-10.369-46.5-6.26-79.885,9.534-87.911a18.4,18.4,0,0,1,7.335-1.99c11.187-.867,26.644,6.34,43.5,20.385a7.357,7.357,0,1,0,9.406-11.316C151.832,8.76,133.181.574,117.933,1.7a36.02,36.02,0,0,0-12.889,3.531c-19.1,9.743-26.8,37.35-21.99,77.654,1.124,8.346,2.568,17.046,4.655,26C35.046,119.414,1.5,140.505.055,167.054c-.963,18.78,13.884,36.66,43.016,51.716a7.365,7.365,0,1,0,6.741-13.1C26.539,193.7,14.019,180.183,14.774,167.824c.8-17.335,28.442-35.151,76.4-44.621a435.425,435.425,0,0,0,16.853,49.6c-16.34,30.3-28.185,60.143-34.3,86.675-8.988,39.565-4.173,67.735,13.8,79.42a36.053,36.053,0,0,0,20.015,5.618c15.008,0,33.177-7.383,53.722-22.022a7.344,7.344,0,1,0-8.507-11.974c-24.783,17.7-45.649,23.627-57.173,16.1-12.2-7.945-14.863-31.187-7.383-63.818,5.136-22.247,14.558-47.029,27.415-72.55q4.815,10.545,10.112,21.075c22.872,44.878,50.881,83.9,78.81,109.868,22.247,20.706,42.92,31.508,59.95,31.508a34.771,34.771,0,0,0,15.666-3.579c18.378-9.39,26.323-35.472,22.439-73.433-3.6-35.521-17.014-78.81-37.784-121.987a7.381,7.381,0,0,0-13.322,6.356c43.177,89.917,46.227,163.558,21.99,175.918-25.521,13.049-87.06-37.8-134.667-131.3-5.457-10.513-10.224-20.866-14.446-30.978,5.457-9.759,11.236-19.582,17.576-29.373,6.34-9.695,12.937-19.068,19.646-28.009h6.324c8.667,0,18.073.161,27.832.77,104.812,5.505,176.158,41.09,174.7,69.564-.642,12.279-14.831,24.686-38.923,34.028a7.444,7.444,0,0,0-4.173,9.566,7.311,7.311,0,0,0,6.838,4.687,7.55,7.55,0,0,0,2.681-.482c30.577-11.878,47.35-28.185,48.313-47.029C386.3,166.074,366.4,145.529,329,129.639v-.16ZM129.586,136.2c-4.334,6.661-8.346,13.274-12.263,19.967-4.687-12.327-8.539-24.237-11.6-35.553,11.444-1.766,23.836-3.05,37.078-3.852q-6.741,9.39-13.162,19.422v-.161Zm63,18.86a22.07,22.07,0,1,0,22.07,22.07A22.07,22.07,0,0,0,192.585,155.063Z" transform="translate(-0.011 -1.595)"/>
</svg>
