<svg xmlns="http://www.w3.org/2000/svg" width="349" height="429" fill="none" viewBox="0 0 349 429"><path fill="#57A4FF" d="M230.009 48.6128C218.523 48.6128 209.212 39.3449 209.212 27.9124C209.212 16.4799 218.523 7.21198 230.009 7.21198C241.495 7.21198 250.806 16.4799 250.806 27.9124C250.806 39.3449 241.495 48.6128 230.009 48.6128Z"/><path fill="#57A4FF" d="M320.128 138.315C308.642 138.315 299.331 129.047 299.331 117.614C299.331 106.182 308.642 96.9139 320.128 96.9139C331.614 96.9139 340.925 106.182 340.925 117.614C340.925 129.047 331.614 138.315 320.128 138.315Z"/><path fill="#57A4FF" d="M28.9717 138.315C17.4859 138.315 8.17479 129.047 8.17479 117.614C8.17479 106.182 17.4859 96.9139 28.9717 96.9139C40.4576 96.9139 49.7687 106.182 49.7687 117.614C49.7687 129.047 40.4576 138.315 28.9717 138.315Z"/><path fill="#57A4FF" d="M119.092 421.221C107.606 421.221 98.2948 411.953 98.2948 400.52C98.2948 389.088 107.606 379.82 119.092 379.82C130.578 379.82 139.889 389.088 139.889 400.52C139.889 411.953 130.578 421.221 119.092 421.221Z"/><path fill="#57A4FF" d="M28.9717 331.519C17.4859 331.519 8.17479 322.251 8.17479 310.818C8.17479 299.386 17.4859 290.118 28.9717 290.118C40.4576 290.118 49.7687 299.386 49.7687 310.818C49.7687 322.251 40.4576 331.519 28.9717 331.519Z"/><path fill="#57A4FF" d="M320.128 331.519C308.642 331.519 299.331 322.251 299.331 310.818C299.331 299.386 308.642 290.118 320.128 290.118C331.614 290.118 340.925 299.386 340.925 310.818C340.925 322.251 331.614 331.519 320.128 331.519Z"/><path fill="#004FAC" d="M28.9718 283.217C30.2083 283.258 31.4405 283.382 32.6598 283.59L58.7322 257.639C60.032 256.345 61.795 255.617 63.6334 255.617H167.618V172.815H63.6334C61.795 172.815 60.032 172.088 58.7322 170.793L32.6598 144.842C31.4405 145.05 30.2083 145.175 28.9718 145.215C22.3384 145.296 15.8904 143.037 10.7709 138.837C5.65148 134.638 2.19132 128.77 1.00391 122.273C-0.183492 115.777 0.978574 109.072 4.28409 103.347C7.5896 97.6215 12.825 93.2465 19.0621 90.9971C25.2992 88.7477 32.1351 88.7693 38.3577 91.0579C44.5804 93.3466 49.7878 97.7546 53.0568 103.5C56.3258 109.246 57.4452 115.958 56.2165 122.447C54.9877 128.936 51.4903 134.782 46.3442 138.949L66.5034 159.015H137.019L114.191 136.293C112.891 134.999 112.16 133.244 112.16 131.414V96.9136C112.201 96.6016 112.264 96.2927 112.347 95.989C105.784 94.3509 100.05 90.3811 96.2234 84.8273C92.397 79.2734 90.7425 72.5187 91.5717 65.8351C92.4008 59.1515 95.6563 53.0002 100.725 48.5396C105.794 44.079 112.326 41.6169 119.092 41.6169C125.858 41.6169 132.39 44.079 137.459 48.5396C142.528 53.0002 145.783 59.1515 146.612 65.8351C147.441 72.5187 145.787 79.2734 141.96 84.8273C138.134 90.3811 132.4 94.3509 125.837 95.989C125.92 96.2927 125.983 96.6016 126.024 96.9136V128.558L156.624 159.015H184.949L223.077 108.416V55.5128C223.118 55.2008 223.181 54.8919 223.264 54.5882C216.701 52.95 210.967 48.9803 207.14 43.4264C203.314 37.8725 201.66 31.1178 202.489 24.4342C203.318 17.7506 206.573 11.5994 211.642 7.13877C216.711 2.67818 223.243 0.216064 230.009 0.216064C236.775 0.216064 243.307 2.67818 248.376 7.13877C253.445 11.5994 256.7 17.7506 257.529 24.4342C258.358 31.1178 256.704 37.8725 252.878 43.4264C249.051 48.9803 243.317 52.95 236.754 54.5882C236.837 54.8919 236.9 55.2008 236.941 55.5128V110.714C236.941 112.207 236.455 113.66 235.555 114.854L202.28 159.015H282.598L302.757 138.949C297.742 134.835 294.348 129.089 293.175 122.726C292.002 116.364 293.125 109.793 296.345 104.174C299.566 98.5555 304.677 94.2498 310.777 92.0173C316.877 89.7848 323.573 89.7691 329.684 91.9728C335.794 94.1765 340.926 98.458 344.173 104.062C347.421 109.665 348.575 116.23 347.432 122.599C346.289 128.967 342.923 134.728 337.927 138.866C332.932 143.004 326.628 145.253 320.129 145.215C318.893 145.175 317.66 145.05 316.441 144.842L290.369 170.793C289.069 172.088 287.306 172.815 285.468 172.815H181.483V255.617H243.874V234.916C243.874 233.086 244.604 231.331 245.904 230.037C247.204 228.743 248.967 228.016 250.806 228.016C252.645 228.016 254.408 228.743 255.708 230.037C257.008 231.331 257.738 233.086 257.738 234.916V255.617H285.468C287.306 255.617 289.069 256.345 290.369 257.639L316.441 283.59C317.66 283.382 318.893 283.258 320.129 283.217C326.763 283.136 333.211 285.396 338.33 289.595C343.449 293.794 346.91 299.662 348.097 306.159C349.284 312.655 348.122 319.361 344.817 325.086C341.511 330.811 336.276 335.186 330.039 337.435C323.802 339.684 316.966 339.663 310.743 337.374C304.521 335.085 299.313 330.678 296.044 324.932C292.775 319.186 291.656 312.474 292.884 305.985C294.113 299.496 297.611 293.65 302.757 289.483L282.598 269.417H212.082L234.91 292.139C236.21 293.433 236.941 295.188 236.941 297.018V331.518C236.9 331.83 236.837 332.139 236.754 332.443C243.317 334.081 249.051 338.051 252.878 343.605C256.704 349.159 258.358 355.913 257.529 362.597C256.7 369.281 253.445 375.432 248.376 379.893C243.307 384.353 236.775 386.815 230.009 386.815C223.243 386.815 216.711 384.353 211.642 379.893C206.573 375.432 203.318 369.281 202.489 362.597C201.66 355.913 203.314 349.159 207.14 343.605C210.967 338.051 216.701 334.081 223.264 332.443C223.181 332.139 223.118 331.83 223.077 331.518V299.874L192.477 269.417H164.152L126.024 320.016V372.919C125.983 373.231 125.92 373.54 125.837 373.844C132.4 375.482 138.134 379.452 141.96 385.006C145.787 390.56 147.441 397.314 146.612 403.998C145.783 410.682 142.528 416.833 137.459 421.293C132.39 425.754 125.858 428.216 119.092 428.216C112.326 428.216 105.794 425.754 100.725 421.293C95.6563 416.833 92.4008 410.682 91.5717 403.998C90.7425 397.314 92.397 390.56 96.2234 385.006C100.05 379.452 105.784 375.482 112.347 373.844C112.264 373.54 112.201 373.231 112.16 372.919V317.718C112.16 316.225 112.646 314.772 113.546 313.578L146.821 269.417H66.5034L46.3442 289.483C51.3594 293.597 54.7531 299.343 55.9261 305.706C57.0992 312.068 55.9763 318.639 52.7556 324.258C49.5349 329.877 44.4235 334.182 38.3237 336.415C32.2238 338.647 25.5277 338.663 19.4173 336.459C13.3069 334.256 8.17501 329.974 4.92762 324.371C1.68023 318.767 0.526084 312.202 1.66889 305.833C2.8117 299.465 6.17799 293.704 11.1736 289.566C16.1691 285.428 22.4728 283.179 28.9718 283.217V283.217ZM28.9718 103.814C26.2297 103.814 23.5491 104.623 21.269 106.14C18.989 107.656 17.2119 109.811 16.1626 112.333C15.1132 114.855 14.8386 117.629 15.3736 120.306C15.9086 122.983 17.229 125.442 19.168 127.372C21.107 129.302 23.5775 130.617 26.2669 131.149C28.9564 131.682 31.7441 131.408 34.2776 130.364C36.811 129.319 38.9764 127.551 40.4998 125.281C42.0233 123.012 42.8364 120.344 42.8364 117.614C42.8364 113.954 41.3757 110.444 38.7756 107.856C36.1755 105.268 32.6489 103.814 28.9718 103.814ZM132.957 69.3131C132.957 66.5836 132.143 63.9155 130.62 61.6461C129.097 59.3766 126.931 57.6078 124.398 56.5633C121.864 55.5188 119.077 55.2455 116.387 55.778C113.698 56.3105 111.227 57.6248 109.288 59.5548C107.349 61.4848 106.029 63.9438 105.494 66.6208C104.959 69.2978 105.233 72.0725 106.283 74.5942C107.332 77.1159 109.109 79.2712 111.389 80.7876C113.669 82.304 116.35 83.1134 119.092 83.1134C122.769 83.1134 126.296 81.6594 128.896 79.0714C131.496 76.4833 132.957 72.9731 132.957 69.3131ZM243.874 27.9122C243.874 25.1828 243.06 22.5146 241.537 20.2452C240.014 17.9758 237.848 16.2069 235.315 15.1624C232.781 14.1179 229.994 13.8446 227.304 14.3771C224.615 14.9096 222.144 16.224 220.205 18.154C218.266 20.084 216.946 22.5429 216.411 25.2199C215.876 27.8969 216.15 30.6717 217.2 33.1934C218.249 35.715 220.026 37.8704 222.306 39.3867C224.586 40.9031 227.267 41.7125 230.009 41.7125C233.686 41.7125 237.213 40.2586 239.813 37.6705C242.413 35.0824 243.874 31.5723 243.874 27.9122ZM333.994 117.614C333.994 114.885 333.181 112.216 331.657 109.947C330.134 107.678 327.968 105.909 325.435 104.864C322.901 103.82 320.114 103.546 317.424 104.079C314.735 104.611 312.264 105.926 310.325 107.856C308.386 109.786 307.066 112.245 306.531 114.922C305.996 117.599 306.27 120.374 307.32 122.895C308.369 125.417 310.146 127.572 312.426 129.089C314.706 130.605 317.387 131.414 320.129 131.414C323.806 131.414 327.333 129.96 329.933 127.372C332.533 124.784 333.994 121.274 333.994 117.614ZM320.129 324.618C322.871 324.618 325.552 323.809 327.832 322.293C330.112 320.776 331.889 318.621 332.938 316.099C333.988 313.578 334.262 310.803 333.727 308.126C333.192 305.449 331.872 302.99 329.933 301.06C327.994 299.13 325.523 297.815 322.834 297.283C320.144 296.75 317.357 297.024 314.823 298.068C312.29 299.113 310.125 300.882 308.601 303.151C307.078 305.42 306.264 308.089 306.264 310.818C306.264 314.478 307.725 317.988 310.325 320.576C312.925 323.164 316.452 324.618 320.129 324.618ZM216.144 359.119C216.144 361.848 216.958 364.517 218.481 366.786C220.004 369.056 222.17 370.824 224.703 371.869C227.237 372.913 230.024 373.187 232.714 372.654C235.403 372.122 237.874 370.807 239.813 368.877C241.752 366.947 243.072 364.488 243.607 361.811C244.142 359.134 243.868 356.36 242.818 353.838C241.769 351.316 239.992 349.161 237.712 347.645C235.432 346.128 232.751 345.319 230.009 345.319C226.332 345.319 222.805 346.773 220.205 349.361C217.605 351.949 216.144 355.459 216.144 359.119ZM105.227 400.52C105.227 403.249 106.04 405.917 107.564 408.187C109.087 410.456 111.253 412.225 113.786 413.27C116.32 414.314 119.107 414.587 121.797 414.055C124.486 413.523 126.957 412.208 128.896 410.278C130.835 408.348 132.155 405.889 132.69 403.212C133.225 400.535 132.951 397.76 131.901 395.239C130.852 392.717 129.075 390.562 126.795 389.045C124.515 387.529 121.834 386.72 119.092 386.72C115.415 386.72 111.888 388.174 109.288 390.762C106.688 393.35 105.227 396.86 105.227 400.52ZM28.9718 324.618C31.714 324.618 34.3946 323.809 36.6746 322.293C38.9546 320.776 40.7317 318.621 41.7811 316.099C42.8304 313.578 43.105 310.803 42.57 308.126C42.0351 305.449 40.7146 302.99 38.7756 301.06C36.8366 299.13 34.3662 297.815 31.6767 297.283C28.9872 296.75 26.1995 297.024 23.6661 298.068C21.1326 299.113 18.9672 300.882 17.4438 303.151C15.9203 305.42 15.1072 308.089 15.1072 310.818C15.1072 314.478 16.5679 317.988 19.168 320.576C21.7682 323.164 25.2947 324.618 28.9718 324.618Z"/><path fill="#004FAC" d="M250.806 221.116C248.967 221.116 247.204 220.389 245.904 219.095C244.604 217.801 243.873 216.046 243.873 214.216V207.316C243.873 205.486 244.604 203.731 245.904 202.437C247.204 201.143 248.967 200.416 250.806 200.416C252.644 200.416 254.407 201.143 255.708 202.437C257.008 203.731 257.738 205.486 257.738 207.316V214.216C257.738 216.046 257.008 217.801 255.708 219.095C254.407 220.389 252.644 221.116 250.806 221.116Z"/><path fill="#004FAC" d="M320.129 83.1133C318.29 83.1133 316.527 82.3863 315.227 81.0923C313.927 79.7983 313.197 78.0432 313.197 76.2132V62.4129C313.197 60.5829 313.927 58.8278 315.227 57.5338C316.527 56.2397 318.29 55.5128 320.129 55.5128C321.968 55.5128 323.731 56.2397 325.031 57.5338C326.331 58.8278 327.061 60.5829 327.061 62.4129V76.2132C327.061 78.0432 326.331 79.7983 325.031 81.0923C323.731 82.3863 321.968 83.1133 320.129 83.1133Z"/><path fill="#004FAC" d="M22.0394 345.319C23.878 345.319 25.6413 346.046 26.9413 347.34C28.2414 348.634 28.9717 350.389 28.9717 352.219V359.119C28.9717 360.949 28.2414 362.704 26.9413 363.998C25.6413 365.292 23.878 366.019 22.0394 366.019C20.2009 366.019 18.4376 365.292 17.1375 363.998C15.8375 362.704 15.1071 360.949 15.1071 359.119V352.219C15.1071 350.389 15.8375 348.634 17.1375 347.34C18.4376 346.046 20.2009 345.319 22.0394 345.319Z"/></svg>